solid ascii
  facet normal -3.560990e-04 9.978589e-01 6.540277e-02
    outer loop
      vertex   -6.199222e+01 8.158318e+01 1.939158e+01
      vertex   -5.365889e+01 8.160838e+01 1.905236e+01
      vertex   -6.199222e+01 8.160884e+01 1.900000e+01
    endloop
  endfacet
  facet normal -8.425983e-21 9.999618e-01 8.742835e-03
    outer loop
      vertex   -6.199222e+01 8.160884e+01 1.900000e+01
      vertex   -5.365889e+01 8.160838e+01 1.905236e+01
      vertex   -4.532555e+01 8.160838e+01 1.905236e+01
    endloop
  endfacet
  facet normal 6.319380e-21 9.999618e-01 8.742835e-03
    outer loop
      vertex   -6.199222e+01 8.160884e+01 1.900000e+01
      vertex   -4.532555e+01 8.160838e+01 1.905236e+01
      vertex   -3.699222e+01 8.160838e+01 1.905236e+01
    endloop
  endfacet
  facet normal 0.000000e+00 9.961951e-01 8.715113e-02
    outer loop
      vertex   -3.699222e+01 8.160838e+01 1.905236e+01
      vertex   -4.532555e+01 8.160838e+01 1.905236e+01
      vertex   -3.699222e+01 8.157191e+01 1.946930e+01
    endloop
  endfacet
  facet normal -8.684551e-19 9.961951e-01 8.715113e-02
    outer loop
      vertex   -3.699222e+01 8.160838e+01 1.905236e+01
      vertex   -3.699222e+01 8.157191e+01 1.946930e+01
      vertex   -2.865889e+01 8.157191e+01 1.946930e+01
    endloop
  endfacet
  facet normal 0.000000e+00 9.743722e-01 2.249417e-01
    outer loop
      vertex   -3.699222e+01 8.157191e+01 1.946930e+01
      vertex   -3.699222e+01 8.147776e+01 1.987712e+01
      vertex   -2.865889e+01 8.147776e+01 1.987712e+01
    endloop
  endfacet
  facet normal 0.000000e+00 9.743722e-01 2.249417e-01
    outer loop
      vertex   -2.865889e+01 8.147776e+01 1.987712e+01
      vertex   -2.865889e+01 8.157191e+01 1.946930e+01
      vertex   -3.699222e+01 8.157191e+01 1.946930e+01
    endloop
  endfacet
  facet normal 3.473820e-18 9.335780e-01 3.583744e-01
    outer loop
      vertex   -3.699222e+01 8.147776e+01 1.987712e+01
      vertex   -3.699222e+01 8.132777e+01 2.026785e+01
      vertex   -2.865889e+01 8.132777e+01 2.026785e+01
    endloop
  endfacet
  facet normal 3.473820e-18 9.335780e-01 3.583744e-01
    outer loop
      vertex   -2.865889e+01 8.132777e+01 2.026785e+01
      vertex   -2.865889e+01 8.147776e+01 1.987712e+01
      vertex   -3.699222e+01 8.147776e+01 1.987712e+01
    endloop
  endfacet
  facet normal 0.000000e+00 8.746199e-01 4.848093e-01
    outer loop
      vertex   -3.699222e+01 8.132777e+01 2.026785e+01
      vertex   -3.699222e+01 8.112486e+01 2.063392e+01
      vertex   -2.865889e+01 8.112486e+01 2.063392e+01
    endloop
  endfacet
  facet normal 0.000000e+00 8.746199e-01 4.848093e-01
    outer loop
      vertex   -2.865889e+01 8.112486e+01 2.063392e+01
      vertex   -2.865889e+01 8.132777e+01 2.026785e+01
      vertex   -3.699222e+01 8.132777e+01 2.026785e+01
    endloop
  endfacet
  facet normal 0.000000e+00 7.986346e-01 6.018162e-01
    outer loop
      vertex   -3.699222e+01 8.112486e+01 2.063392e+01
      vertex   -3.699222e+01 8.087297e+01 2.096818e+01
      vertex   -2.865889e+01 8.087297e+01 2.096818e+01
    endloop
  endfacet
  facet normal 0.000000e+00 7.986346e-01 6.018162e-01
    outer loop
      vertex   -2.865889e+01 8.087297e+01 2.096818e+01
      vertex   -2.865889e+01 8.112486e+01 2.063392e+01
      vertex   -3.699222e+01 8.112486e+01 2.063392e+01
    endloop
  endfacet
  facet normal 0.000000e+00 7.071068e-01 7.071068e-01
    outer loop
      vertex   -3.699222e+01 8.087297e+01 2.096818e+01
      vertex   -3.699222e+01 8.057702e+01 2.126413e+01
      vertex   -2.865889e+01 8.057702e+01 2.126413e+01
    endloop
  endfacet
  facet normal 0.000000e+00 7.071068e-01 7.071068e-01
    outer loop
      vertex   -2.865889e+01 8.057702e+01 2.126413e+01
      vertex   -2.865889e+01 8.087297e+01 2.096818e+01
      vertex   -3.699222e+01 8.087297e+01 2.096818e+01
    endloop
  endfacet
  facet normal 0.000000e+00 6.018155e-01 7.986352e-01
    outer loop
      vertex   -3.699222e+01 8.057702e+01 2.126413e+01
      vertex   -3.699222e+01 8.024276e+01 2.151601e+01
      vertex   -2.865889e+01 8.024276e+01 2.151601e+01
    endloop
  endfacet
  facet normal 0.000000e+00 6.018155e-01 7.986352e-01
    outer loop
      vertex   -2.865889e+01 8.024276e+01 2.151601e+01
      vertex   -2.865889e+01 8.057702e+01 2.126413e+01
      vertex   -3.699222e+01 8.057702e+01 2.126413e+01
    endloop
  endfacet
  facet normal 0.000000e+00 4.848131e-01 8.746178e-01
    outer loop
      vertex   -3.699222e+01 8.024276e+01 2.151601e+01
      vertex   -3.699222e+01 7.987670e+01 2.171892e+01
      vertex   -2.865889e+01 7.987670e+01 2.171892e+01
    endloop
  endfacet
  facet normal 0.000000e+00 4.848131e-01 8.746178e-01
    outer loop
      vertex   -2.865889e+01 7.987670e+01 2.171892e+01
      vertex   -2.865889e+01 8.024276e+01 2.151601e+01
      vertex   -3.699222e+01 8.024276e+01 2.151601e+01
    endloop
  endfacet
  facet normal 0.000000e+00 3.583664e-01 9.335810e-01
    outer loop
      vertex   -3.699222e+01 7.987670e+01 2.171892e+01
      vertex   -3.699222e+01 7.948596e+01 2.186891e+01
      vertex   -2.865889e+01 7.948596e+01 2.186891e+01
    endloop
  endfacet
  facet normal 0.000000e+00 3.583664e-01 9.335810e-01
    outer loop
      vertex   -2.865889e+01 7.948596e+01 2.186891e+01
      vertex   -2.865889e+01 7.987670e+01 2.171892e+01
      vertex   -3.699222e+01 7.987670e+01 2.171892e+01
    endloop
  endfacet
  facet normal 0.000000e+00 2.249494e-01 9.743705e-01
    outer loop
      vertex   -3.699222e+01 7.948596e+01 2.186891e+01
      vertex   -3.699222e+01 7.907815e+01 2.196306e+01
      vertex   -2.865889e+01 7.907815e+01 2.196306e+01
    endloop
  endfacet
  facet normal 0.000000e+00 2.249494e-01 9.743705e-01
    outer loop
      vertex   -2.865889e+01 7.907815e+01 2.196306e+01
      vertex   -2.865889e+01 7.948596e+01 2.186891e+01
      vertex   -3.699222e+01 7.948596e+01 2.186891e+01
    endloop
  endfacet
  facet normal 0.000000e+00 8.715565e-02 9.961947e-01
    outer loop
      vertex   -2.865889e+01 7.907815e+01 2.196306e+01
      vertex   -3.699222e+01 7.907815e+01 2.196306e+01
      vertex   -2.865889e+01 7.866120e+01 2.199954e+01
    endloop
  endfacet
  facet normal 0.000000e+00 8.715565e-02 9.961947e-01
    outer loop
      vertex   -2.865889e+01 7.866120e+01 2.199954e+01
      vertex   -3.699222e+01 7.907815e+01 2.196306e+01
      vertex   -3.699222e+01 7.866120e+01 2.199954e+01
    endloop
  endfacet
  facet normal 0.000000e+00 8.742198e-03 9.999618e-01
    outer loop
      vertex   -2.865889e+01 7.866120e+01 2.199954e+01
      vertex   -3.699222e+01 7.866120e+01 2.199954e+01
      vertex   -1.199222e+01 7.860884e+01 2.200000e+01
    endloop
  endfacet
  facet normal 0.000000e+00 8.742198e-03 9.999618e-01
    outer loop
      vertex   -1.199222e+01 7.860884e+01 2.200000e+01
      vertex   -3.699222e+01 7.866120e+01 2.199954e+01
      vertex   -6.199222e+01 7.860884e+01 2.200000e+01
    endloop
  endfacet
  facet normal -1.263784e-20 8.742198e-03 9.999618e-01
    outer loop
      vertex   -6.199222e+01 7.860884e+01 2.200000e+01
      vertex   -3.699222e+01 7.866120e+01 2.199954e+01
      vertex   -4.532555e+01 7.866120e+01 2.199954e+01
    endloop
  endfacet
  facet normal -8.425369e-21 8.742198e-03 9.999618e-01
    outer loop
      vertex   -6.199222e+01 7.860884e+01 2.200000e+01
      vertex   -4.532555e+01 7.866120e+01 2.199954e+01
      vertex   -5.365889e+01 7.866120e+01 2.199954e+01
    endloop
  endfacet
  facet normal -0.000000e+00 8.715565e-02 9.961947e-01
    outer loop
      vertex   -5.365889e+01 7.866120e+01 2.199954e+01
      vertex   -4.532555e+01 7.866120e+01 2.199954e+01
      vertex   -5.365889e+01 7.907815e+01 2.196306e+01
    endloop
  endfacet
  facet normal 5.343814e-04 8.715563e-02 9.961945e-01
    outer loop
      vertex   -5.365889e+01 7.866120e+01 2.199954e+01
      vertex   -5.365889e+01 7.907815e+01 2.196306e+01
      vertex   -6.199222e+01 7.900042e+01 2.197433e+01
    endloop
  endfacet
  facet normal -4.932027e-04 1.950897e-01 9.807853e-01
    outer loop
      vertex   -6.199222e+01 7.900042e+01 2.197433e+01
      vertex   -5.365889e+01 7.907815e+01 2.196306e+01
      vertex   -6.199222e+01 7.938530e+01 2.189778e+01
    endloop
  endfacet
  facet normal 6.576279e-04 2.249493e-01 9.743702e-01
    outer loop
      vertex   -6.199222e+01 7.938530e+01 2.189778e+01
      vertex   -5.365889e+01 7.907815e+01 2.196306e+01
      vertex   -5.365889e+01 7.948596e+01 2.186891e+01
    endloop
  endfacet
  facet normal -6.029169e-04 3.214357e-01 9.469312e-01
    outer loop
      vertex   -6.199222e+01 7.938530e+01 2.189778e+01
      vertex   -5.365889e+01 7.948596e+01 2.186891e+01
      vertex   -6.199222e+01 7.975690e+01 2.177164e+01
    endloop
  endfacet
  facet normal 7.536164e-04 3.583663e-01 9.335808e-01
    outer loop
      vertex   -6.199222e+01 7.975690e+01 2.177164e+01
      vertex   -5.365889e+01 7.948596e+01 2.186891e+01
      vertex   -5.365889e+01 7.987670e+01 2.171892e+01
    endloop
  endfacet
  facet normal -6.852283e-04 4.422956e-01 8.968691e-01
    outer loop
      vertex   -6.199222e+01 7.975690e+01 2.177164e+01
      vertex   -5.365889e+01 7.987670e+01 2.171892e+01
      vertex   -6.199222e+01 8.010884e+01 2.159808e+01
    endloop
  endfacet
  facet normal 8.218526e-04 4.848130e-01 8.746175e-01
    outer loop
      vertex   -6.199222e+01 8.010884e+01 2.159808e+01
      vertex   -5.365889e+01 7.987670e+01 2.171892e+01
      vertex   -5.365889e+01 8.024276e+01 2.151601e+01
    endloop
  endfacet
  facet normal -7.400642e-04 5.555668e-01 8.314716e-01
    outer loop
      vertex   -6.199222e+01 8.010884e+01 2.159808e+01
      vertex   -5.365889e+01 8.024276e+01 2.151601e+01
      vertex   -6.199222e+01 8.043513e+01 2.138006e+01
    endloop
  endfacet
  facet normal 8.632473e-04 6.018153e-01 7.986349e-01
    outer loop
      vertex   -6.199222e+01 8.043513e+01 2.138006e+01
      vertex   -5.365889e+01 8.024276e+01 2.151601e+01
      vertex   -5.365889e+01 8.057702e+01 2.126413e+01
    endloop
  endfacet
  facet normal -7.673031e-04 6.593450e-01 7.518401e-01
    outer loop
      vertex   -6.199222e+01 8.043513e+01 2.138006e+01
      vertex   -5.365889e+01 8.057702e+01 2.126413e+01
      vertex   -6.199222e+01 8.073016e+01 2.112132e+01
    endloop
  endfacet
  facet normal 8.770319e-04 7.071065e-01 7.071065e-01
    outer loop
      vertex   -6.199222e+01 8.073016e+01 2.112132e+01
      vertex   -5.365889e+01 8.057702e+01 2.126413e+01
      vertex   -5.365889e+01 8.087297e+01 2.096818e+01
    endloop
  endfacet
  facet normal -7.670983e-04 7.518353e-01 6.593505e-01
    outer loop
      vertex   -6.199222e+01 8.073016e+01 2.112132e+01
      vertex   -5.365889e+01 8.087297e+01 2.096818e+01
      vertex   -6.199222e+01 8.098891e+01 2.082628e+01
    endloop
  endfacet
  facet normal 8.636382e-04 7.986344e-01 6.018160e-01
    outer loop
      vertex   -6.199222e+01 8.098891e+01 2.082628e+01
      vertex   -5.365889e+01 8.087297e+01 2.096818e+01
      vertex   -5.365889e+01 8.112486e+01 2.063392e+01
    endloop
  endfacet
  facet normal -7.399499e-04 8.314768e-01 5.555589e-01
    outer loop
      vertex   -6.199222e+01 8.098891e+01 2.082628e+01
      vertex   -5.365889e+01 8.112486e+01 2.063392e+01
      vertex   -6.199222e+01 8.120692e+01 2.050000e+01
    endloop
  endfacet
  facet normal 8.218467e-04 8.746196e-01 4.848091e-01
    outer loop
      vertex   -6.199222e+01 8.120692e+01 2.050000e+01
      vertex   -5.365889e+01 8.112486e+01 2.063392e+01
      vertex   -5.365889e+01 8.132777e+01 2.026785e+01
    endloop
  endfacet
  facet normal -6.849217e-04 8.968661e-01 4.423016e-01
    outer loop
      vertex   -6.199222e+01 8.120692e+01 2.050000e+01
      vertex   -5.365889e+01 8.132777e+01 2.026785e+01
      vertex   -6.199222e+01 8.138049e+01 2.014805e+01
    endloop
  endfacet
  facet normal 7.539103e-04 9.335777e-01 3.583743e-01
    outer loop
      vertex   -6.199222e+01 8.138049e+01 2.014805e+01
      vertex   -5.365889e+01 8.132777e+01 2.026785e+01
      vertex   -5.365889e+01 8.147776e+01 1.987712e+01
    endloop
  endfacet
  facet normal -6.029680e-04 9.469317e-01 3.214343e-01
    outer loop
      vertex   -6.199222e+01 8.138049e+01 2.014805e+01
      vertex   -5.365889e+01 8.147776e+01 1.987712e+01
      vertex   -6.199222e+01 8.150662e+01 1.977646e+01
    endloop
  endfacet
  facet normal 6.576064e-04 9.743720e-01 2.249417e-01
    outer loop
      vertex   -6.199222e+01 8.150662e+01 1.977646e+01
      vertex   -5.365889e+01 8.147776e+01 1.987712e+01
      vertex   -5.365889e+01 8.157191e+01 1.946930e+01
    endloop
  endfacet
  facet normal -4.932571e-04 9.807870e-01 1.950813e-01
    outer loop
      vertex   -6.199222e+01 8.150662e+01 1.977646e+01
      vertex   -5.365889e+01 8.157191e+01 1.946930e+01
      vertex   -6.199222e+01 8.158318e+01 1.939158e+01
    endloop
  endfacet
  facet normal 5.342360e-04 9.961950e-01 8.715111e-02
    outer loop
      vertex   -6.199222e+01 8.158318e+01 1.939158e+01
      vertex   -5.365889e+01 8.157191e+01 1.946930e+01
      vertex   -5.365889e+01 8.160838e+01 1.905236e+01
    endloop
  endfacet
  facet normal -3.561289e-04 6.540277e-02 9.978589e-01
    outer loop
      vertex   -6.199222e+01 7.900042e+01 2.197433e+01
      vertex   -6.199222e+01 7.860884e+01 2.200000e+01
      vertex   -5.365889e+01 7.866120e+01 2.199954e+01
    endloop
  endfacet
  facet normal -0.000000e+00 8.742198e-03 9.999618e-01
    outer loop
      vertex   -2.865889e+01 7.866120e+01 2.199954e+01
      vertex   -1.199222e+01 7.860884e+01 2.200000e+01
      vertex   -2.032556e+01 7.866120e+01 2.199954e+01
    endloop
  endfacet
  facet normal 3.561288e-04 6.540277e-02 9.978589e-01
    outer loop
      vertex   -2.032556e+01 7.866120e+01 2.199954e+01
      vertex   -1.199222e+01 7.860884e+01 2.200000e+01
      vertex   -1.199222e+01 7.900042e+01 2.197433e+01
    endloop
  endfacet
  facet normal -5.343813e-04 8.715563e-02 9.961945e-01
    outer loop
      vertex   -2.032556e+01 7.866120e+01 2.199954e+01
      vertex   -1.199222e+01 7.900042e+01 2.197433e+01
      vertex   -2.032556e+01 7.907815e+01 2.196306e+01
    endloop
  endfacet
  facet normal 4.932026e-04 1.950897e-01 9.807853e-01
    outer loop
      vertex   -2.032556e+01 7.907815e+01 2.196306e+01
      vertex   -1.199222e+01 7.900042e+01 2.197433e+01
      vertex   -1.199222e+01 7.938530e+01 2.189778e+01
    endloop
  endfacet
  facet normal -6.576277e-04 2.249493e-01 9.743702e-01
    outer loop
      vertex   -2.032556e+01 7.907815e+01 2.196306e+01
      vertex   -1.199222e+01 7.938530e+01 2.189778e+01
      vertex   -2.032556e+01 7.948596e+01 2.186891e+01
    endloop
  endfacet
  facet normal 6.029168e-04 3.214357e-01 9.469312e-01
    outer loop
      vertex   -2.032556e+01 7.948596e+01 2.186891e+01
      vertex   -1.199222e+01 7.938530e+01 2.189778e+01
      vertex   -1.199222e+01 7.975690e+01 2.177164e+01
    endloop
  endfacet
  facet normal -7.536163e-04 3.583663e-01 9.335808e-01
    outer loop
      vertex   -2.032556e+01 7.948596e+01 2.186891e+01
      vertex   -1.199222e+01 7.975690e+01 2.177164e+01
      vertex   -2.032556e+01 7.987670e+01 2.171892e+01
    endloop
  endfacet
  facet normal 6.852281e-04 4.422956e-01 8.968691e-01
    outer loop
      vertex   -2.032556e+01 7.987670e+01 2.171892e+01
      vertex   -1.199222e+01 7.975690e+01 2.177164e+01
      vertex   -1.199222e+01 8.010884e+01 2.159808e+01
    endloop
  endfacet
  facet normal -8.218525e-04 4.848130e-01 8.746175e-01
    outer loop
      vertex   -2.032556e+01 7.987670e+01 2.171892e+01
      vertex   -1.199222e+01 8.010884e+01 2.159808e+01
      vertex   -2.032556e+01 8.024276e+01 2.151601e+01
    endloop
  endfacet
  facet normal 7.400640e-04 5.555668e-01 8.314716e-01
    outer loop
      vertex   -2.032556e+01 8.024276e+01 2.151601e+01
      vertex   -1.199222e+01 8.010884e+01 2.159808e+01
      vertex   -1.199222e+01 8.043513e+01 2.138006e+01
    endloop
  endfacet
  facet normal -8.632471e-04 6.018153e-01 7.986349e-01
    outer loop
      vertex   -2.032556e+01 8.024276e+01 2.151601e+01
      vertex   -1.199222e+01 8.043513e+01 2.138006e+01
      vertex   -2.032556e+01 8.057702e+01 2.126413e+01
    endloop
  endfacet
  facet normal 7.673029e-04 6.593450e-01 7.518401e-01
    outer loop
      vertex   -2.032556e+01 8.057702e+01 2.126413e+01
      vertex   -1.199222e+01 8.043513e+01 2.138006e+01
      vertex   -1.199222e+01 8.073016e+01 2.112132e+01
    endloop
  endfacet
  facet normal -8.770317e-04 7.071065e-01 7.071065e-01
    outer loop
      vertex   -2.032556e+01 8.057702e+01 2.126413e+01
      vertex   -1.199222e+01 8.073016e+01 2.112132e+01
      vertex   -2.032556e+01 8.087297e+01 2.096818e+01
    endloop
  endfacet
  facet normal 7.670982e-04 7.518353e-01 6.593505e-01
    outer loop
      vertex   -2.032556e+01 8.087297e+01 2.096818e+01
      vertex   -1.199222e+01 8.073016e+01 2.112132e+01
      vertex   -1.199222e+01 8.098891e+01 2.082628e+01
    endloop
  endfacet
  facet normal -8.636381e-04 7.986344e-01 6.018160e-01
    outer loop
      vertex   -2.032556e+01 8.087297e+01 2.096818e+01
      vertex   -1.199222e+01 8.098891e+01 2.082628e+01
      vertex   -2.032556e+01 8.112486e+01 2.063392e+01
    endloop
  endfacet
  facet normal 7.399497e-04 8.314768e-01 5.555589e-01
    outer loop
      vertex   -2.032556e+01 8.112486e+01 2.063392e+01
      vertex   -1.199222e+01 8.098891e+01 2.082628e+01
      vertex   -1.199222e+01 8.120692e+01 2.050000e+01
    endloop
  endfacet
  facet normal -8.218464e-04 8.746196e-01 4.848091e-01
    outer loop
      vertex   -2.032556e+01 8.112486e+01 2.063392e+01
      vertex   -1.199222e+01 8.120692e+01 2.050000e+01
      vertex   -2.032556e+01 8.132777e+01 2.026785e+01
    endloop
  endfacet
  facet normal 6.849216e-04 8.968661e-01 4.423016e-01
    outer loop
      vertex   -2.032556e+01 8.132777e+01 2.026785e+01
      vertex   -1.199222e+01 8.120692e+01 2.050000e+01
      vertex   -1.199222e+01 8.138049e+01 2.014805e+01
    endloop
  endfacet
  facet normal -7.539101e-04 9.335777e-01 3.583743e-01
    outer loop
      vertex   -2.032556e+01 8.132777e+01 2.026785e+01
      vertex   -1.199222e+01 8.138049e+01 2.014805e+01
      vertex   -2.032556e+01 8.147776e+01 1.987712e+01
    endloop
  endfacet
  facet normal 6.029679e-04 9.469317e-01 3.214343e-01
    outer loop
      vertex   -2.032556e+01 8.147776e+01 1.987712e+01
      vertex   -1.199222e+01 8.138049e+01 2.014805e+01
      vertex   -1.199222e+01 8.150662e+01 1.977646e+01
    endloop
  endfacet
  facet normal -6.576063e-04 9.743720e-01 2.249417e-01
    outer loop
      vertex   -2.032556e+01 8.147776e+01 1.987712e+01
      vertex   -1.199222e+01 8.150662e+01 1.977646e+01
      vertex   -2.032556e+01 8.157191e+01 1.946930e+01
    endloop
  endfacet
  facet normal 4.932570e-04 9.807870e-01 1.950813e-01
    outer loop
      vertex   -2.032556e+01 8.157191e+01 1.946930e+01
      vertex   -1.199222e+01 8.150662e+01 1.977646e+01
      vertex   -1.199222e+01 8.158318e+01 1.939158e+01
    endloop
  endfacet
  facet normal -5.342358e-04 9.961950e-01 8.715111e-02
    outer loop
      vertex   -2.032556e+01 8.157191e+01 1.946930e+01
      vertex   -1.199222e+01 8.158318e+01 1.939158e+01
      vertex   -2.032556e+01 8.160838e+01 1.905236e+01
    endloop
  endfacet
  facet normal 3.560989e-04 9.978589e-01 6.540277e-02
    outer loop
      vertex   -2.032556e+01 8.160838e+01 1.905236e+01
      vertex   -1.199222e+01 8.158318e+01 1.939158e+01
      vertex   -1.199222e+01 8.160884e+01 1.900000e+01
    endloop
  endfacet
  facet normal 0.000000e+00 9.999618e-01 8.742835e-03
    outer loop
      vertex   -2.032556e+01 8.160838e+01 1.905236e+01
      vertex   -1.199222e+01 8.160884e+01 1.900000e+01
      vertex   -2.865889e+01 8.160838e+01 1.905236e+01
    endloop
  endfacet
  facet normal 0.000000e+00 9.999618e-01 8.742835e-03
    outer loop
      vertex   -2.865889e+01 8.160838e+01 1.905236e+01
      vertex   -1.199222e+01 8.160884e+01 1.900000e+01
      vertex   -3.699222e+01 8.160838e+01 1.905236e+01
    endloop
  endfacet
  facet normal 0.000000e+00 9.961951e-01 8.715113e-02
    outer loop
      vertex   -2.865889e+01 8.160838e+01 1.905236e+01
      vertex   -3.699222e+01 8.160838e+01 1.905236e+01
      vertex   -2.865889e+01 8.157191e+01 1.946930e+01
    endloop
  endfacet
  facet normal 0.000000e+00 9.999618e-01 8.742835e-03
    outer loop
      vertex   -1.199222e+01 8.160884e+01 1.900000e+01
      vertex   -6.199222e+01 8.160884e+01 1.900000e+01
      vertex   -3.699222e+01 8.160838e+01 1.905236e+01
    endloop
  endfacet
  facet normal 0.000000e+00 9.961951e-01 8.715113e-02
    outer loop
      vertex   -4.532555e+01 8.160838e+01 1.905236e+01
      vertex   -5.365889e+01 8.160838e+01 1.905236e+01
      vertex   -4.532555e+01 8.157191e+01 1.946930e+01
    endloop
  endfacet
  facet normal 0.000000e+00 9.961951e-01 8.715113e-02
    outer loop
      vertex   -4.532555e+01 8.157191e+01 1.946930e+01
      vertex   -5.365889e+01 8.160838e+01 1.905236e+01
      vertex   -5.365889e+01 8.157191e+01 1.946930e+01
    endloop
  endfacet
  facet normal 0.000000e+00 9.743722e-01 2.249417e-01
    outer loop
      vertex   -4.532555e+01 8.157191e+01 1.946930e+01
      vertex   -5.365889e+01 8.157191e+01 1.946930e+01
      vertex   -4.532555e+01 8.147776e+01 1.987712e+01
    endloop
  endfacet
  facet normal 0.000000e+00 9.743722e-01 2.249417e-01
    outer loop
      vertex   -4.532555e+01 8.147776e+01 1.987712e+01
      vertex   -5.365889e+01 8.157191e+01 1.946930e+01
      vertex   -5.365889e+01 8.147776e+01 1.987712e+01
    endloop
  endfacet
  facet normal 0.000000e+00 9.335780e-01 3.583744e-01
    outer loop
      vertex   -4.532555e+01 8.147776e+01 1.987712e+01
      vertex   -5.365889e+01 8.147776e+01 1.987712e+01
      vertex   -4.532555e+01 8.132777e+01 2.026785e+01
    endloop
  endfacet
  facet normal 0.000000e+00 9.335780e-01 3.583744e-01
    outer loop
      vertex   -4.532555e+01 8.132777e+01 2.026785e+01
      vertex   -5.365889e+01 8.147776e+01 1.987712e+01
      vertex   -5.365889e+01 8.132777e+01 2.026785e+01
    endloop
  endfacet
  facet normal 0.000000e+00 8.746199e-01 4.848093e-01
    outer loop
      vertex   -4.532555e+01 8.132777e+01 2.026785e+01
      vertex   -5.365889e+01 8.132777e+01 2.026785e+01
      vertex   -4.532555e+01 8.112486e+01 2.063392e+01
    endloop
  endfacet
  facet normal 0.000000e+00 8.746199e-01 4.848093e-01
    outer loop
      vertex   -4.532555e+01 8.112486e+01 2.063392e+01
      vertex   -5.365889e+01 8.132777e+01 2.026785e+01
      vertex   -5.365889e+01 8.112486e+01 2.063392e+01
    endloop
  endfacet
  facet normal 0.000000e+00 7.986346e-01 6.018162e-01
    outer loop
      vertex   -4.532555e+01 8.112486e+01 2.063392e+01
      vertex   -5.365889e+01 8.112486e+01 2.063392e+01
      vertex   -4.532555e+01 8.087297e+01 2.096818e+01
    endloop
  endfacet
  facet normal 0.000000e+00 7.986346e-01 6.018162e-01
    outer loop
      vertex   -4.532555e+01 8.087297e+01 2.096818e+01
      vertex   -5.365889e+01 8.112486e+01 2.063392e+01
      vertex   -5.365889e+01 8.087297e+01 2.096818e+01
    endloop
  endfacet
  facet normal 0.000000e+00 7.071068e-01 7.071068e-01
    outer loop
      vertex   -4.532555e+01 8.087297e+01 2.096818e+01
      vertex   -5.365889e+01 8.087297e+01 2.096818e+01
      vertex   -4.532555e+01 8.057702e+01 2.126413e+01
    endloop
  endfacet
  facet normal 0.000000e+00 7.071068e-01 7.071068e-01
    outer loop
      vertex   -4.532555e+01 8.057702e+01 2.126413e+01
      vertex   -5.365889e+01 8.087297e+01 2.096818e+01
      vertex   -5.365889e+01 8.057702e+01 2.126413e+01
    endloop
  endfacet
  facet normal 0.000000e+00 6.018155e-01 7.986352e-01
    outer loop
      vertex   -4.532555e+01 8.057702e+01 2.126413e+01
      vertex   -5.365889e+01 8.057702e+01 2.126413e+01
      vertex   -4.532555e+01 8.024276e+01 2.151601e+01
    endloop
  endfacet
  facet normal 0.000000e+00 6.018155e-01 7.986352e-01
    outer loop
      vertex   -4.532555e+01 8.024276e+01 2.151601e+01
      vertex   -5.365889e+01 8.057702e+01 2.126413e+01
      vertex   -5.365889e+01 8.024276e+01 2.151601e+01
    endloop
  endfacet
  facet normal 0.000000e+00 4.848131e-01 8.746178e-01
    outer loop
      vertex   -4.532555e+01 8.024276e+01 2.151601e+01
      vertex   -5.365889e+01 8.024276e+01 2.151601e+01
      vertex   -4.532555e+01 7.987670e+01 2.171892e+01
    endloop
  endfacet
  facet normal 0.000000e+00 4.848131e-01 8.746178e-01
    outer loop
      vertex   -4.532555e+01 7.987670e+01 2.171892e+01
      vertex   -5.365889e+01 8.024276e+01 2.151601e+01
      vertex   -5.365889e+01 7.987670e+01 2.171892e+01
    endloop
  endfacet
  facet normal 0.000000e+00 3.583664e-01 9.335810e-01
    outer loop
      vertex   -4.532555e+01 7.987670e+01 2.171892e+01
      vertex   -5.365889e+01 7.987670e+01 2.171892e+01
      vertex   -4.532555e+01 7.948596e+01 2.186891e+01
    endloop
  endfacet
  facet normal 0.000000e+00 3.583664e-01 9.335810e-01
    outer loop
      vertex   -4.532555e+01 7.948596e+01 2.186891e+01
      vertex   -5.365889e+01 7.987670e+01 2.171892e+01
      vertex   -5.365889e+01 7.948596e+01 2.186891e+01
    endloop
  endfacet
  facet normal 0.000000e+00 2.249494e-01 9.743705e-01
    outer loop
      vertex   -4.532555e+01 7.948596e+01 2.186891e+01
      vertex   -5.365889e+01 7.948596e+01 2.186891e+01
      vertex   -4.532555e+01 7.907815e+01 2.196306e+01
    endloop
  endfacet
  facet normal 0.000000e+00 2.249494e-01 9.743705e-01
    outer loop
      vertex   -4.532555e+01 7.907815e+01 2.196306e+01
      vertex   -5.365889e+01 7.948596e+01 2.186891e+01
      vertex   -5.365889e+01 7.907815e+01 2.196306e+01
    endloop
  endfacet
  facet normal 0.000000e+00 8.715565e-02 9.961947e-01
    outer loop
      vertex   -4.532555e+01 7.907815e+01 2.196306e+01
      vertex   -5.365889e+01 7.907815e+01 2.196306e+01
      vertex   -4.532555e+01 7.866120e+01 2.199954e+01
    endloop
  endfacet
  facet normal -8.684551e-19 9.961951e-01 8.715113e-02
    outer loop
      vertex   -2.032556e+01 8.157191e+01 1.946930e+01
      vertex   -2.032556e+01 8.160838e+01 1.905236e+01
      vertex   -2.865889e+01 8.160838e+01 1.905236e+01
    endloop
  endfacet
  facet normal 0.000000e+00 9.961951e-01 8.715113e-02
    outer loop
      vertex   -2.032556e+01 8.157191e+01 1.946930e+01
      vertex   -2.865889e+01 8.160838e+01 1.905236e+01
      vertex   -2.865889e+01 8.157191e+01 1.946930e+01
    endloop
  endfacet
  facet normal 0.000000e+00 9.743722e-01 2.249417e-01
    outer loop
      vertex   -3.699222e+01 8.157191e+01 1.946930e+01
      vertex   -4.532555e+01 8.157191e+01 1.946930e+01
      vertex   -4.532555e+01 8.147776e+01 1.987712e+01
    endloop
  endfacet
  facet normal -0.000000e+00 9.743722e-01 2.249417e-01
    outer loop
      vertex   -4.532555e+01 8.147776e+01 1.987712e+01
      vertex   -3.699222e+01 8.147776e+01 1.987712e+01
      vertex   -3.699222e+01 8.157191e+01 1.946930e+01
    endloop
  endfacet
  facet normal 0.000000e+00 9.743722e-01 2.249417e-01
    outer loop
      vertex   -2.032556e+01 8.147776e+01 1.987712e+01
      vertex   -2.032556e+01 8.157191e+01 1.946930e+01
      vertex   -2.865889e+01 8.157191e+01 1.946930e+01
    endloop
  endfacet
  facet normal -8.684551e-19 9.961951e-01 8.715113e-02
    outer loop
      vertex   -4.532555e+01 8.160838e+01 1.905236e+01
      vertex   -4.532555e+01 8.157191e+01 1.946930e+01
      vertex   -3.699222e+01 8.157191e+01 1.946930e+01
    endloop
  endfacet
  facet normal 0.000000e+00 9.335780e-01 3.583744e-01
    outer loop
      vertex   -4.532555e+01 8.147776e+01 1.987712e+01
      vertex   -4.532555e+01 8.132777e+01 2.026785e+01
      vertex   -3.699222e+01 8.132777e+01 2.026785e+01
    endloop
  endfacet
  facet normal 0.000000e+00 9.335780e-01 3.583744e-01
    outer loop
      vertex   -3.699222e+01 8.132777e+01 2.026785e+01
      vertex   -3.699222e+01 8.147776e+01 1.987712e+01
      vertex   -4.532555e+01 8.147776e+01 1.987712e+01
    endloop
  endfacet
  facet normal 0.000000e+00 8.746199e-01 4.848093e-01
    outer loop
      vertex   -4.532555e+01 8.132777e+01 2.026785e+01
      vertex   -4.532555e+01 8.112486e+01 2.063392e+01
      vertex   -3.699222e+01 8.112486e+01 2.063392e+01
    endloop
  endfacet
  facet normal 0.000000e+00 8.746199e-01 4.848093e-01
    outer loop
      vertex   -3.699222e+01 8.112486e+01 2.063392e+01
      vertex   -3.699222e+01 8.132777e+01 2.026785e+01
      vertex   -4.532555e+01 8.132777e+01 2.026785e+01
    endloop
  endfacet
  facet normal 0.000000e+00 7.986346e-01 6.018162e-01
    outer loop
      vertex   -4.532555e+01 8.112486e+01 2.063392e+01
      vertex   -4.532555e+01 8.087297e+01 2.096818e+01
      vertex   -3.699222e+01 8.087297e+01 2.096818e+01
    endloop
  endfacet
  facet normal 0.000000e+00 7.986346e-01 6.018162e-01
    outer loop
      vertex   -3.699222e+01 8.087297e+01 2.096818e+01
      vertex   -3.699222e+01 8.112486e+01 2.063392e+01
      vertex   -4.532555e+01 8.112486e+01 2.063392e+01
    endloop
  endfacet
  facet normal 0.000000e+00 7.071068e-01 7.071068e-01
    outer loop
      vertex   -4.532555e+01 8.087297e+01 2.096818e+01
      vertex   -4.532555e+01 8.057702e+01 2.126413e+01
      vertex   -3.699222e+01 8.057702e+01 2.126413e+01
    endloop
  endfacet
  facet normal 0.000000e+00 7.071068e-01 7.071068e-01
    outer loop
      vertex   -3.699222e+01 8.057702e+01 2.126413e+01
      vertex   -3.699222e+01 8.087297e+01 2.096818e+01
      vertex   -4.532555e+01 8.087297e+01 2.096818e+01
    endloop
  endfacet
  facet normal 3.473820e-18 6.018155e-01 7.986352e-01
    outer loop
      vertex   -4.532555e+01 8.057702e+01 2.126413e+01
      vertex   -4.532555e+01 8.024276e+01 2.151601e+01
      vertex   -3.699222e+01 8.024276e+01 2.151601e+01
    endloop
  endfacet
  facet normal 3.473820e-18 6.018155e-01 7.986352e-01
    outer loop
      vertex   -3.699222e+01 8.024276e+01 2.151601e+01
      vertex   -3.699222e+01 8.057702e+01 2.126413e+01
      vertex   -4.532555e+01 8.057702e+01 2.126413e+01
    endloop
  endfacet
  facet normal 0.000000e+00 4.848131e-01 8.746178e-01
    outer loop
      vertex   -4.532555e+01 8.024276e+01 2.151601e+01
      vertex   -4.532555e+01 7.987670e+01 2.171892e+01
      vertex   -3.699222e+01 7.987670e+01 2.171892e+01
    endloop
  endfacet
  facet normal 0.000000e+00 4.848131e-01 8.746178e-01
    outer loop
      vertex   -3.699222e+01 7.987670e+01 2.171892e+01
      vertex   -3.699222e+01 8.024276e+01 2.151601e+01
      vertex   -4.532555e+01 8.024276e+01 2.151601e+01
    endloop
  endfacet
  facet normal 3.473820e-18 3.583664e-01 9.335810e-01
    outer loop
      vertex   -4.532555e+01 7.987670e+01 2.171892e+01
      vertex   -4.532555e+01 7.948596e+01 2.186891e+01
      vertex   -3.699222e+01 7.948596e+01 2.186891e+01
    endloop
  endfacet
  facet normal 3.473820e-18 3.583664e-01 9.335810e-01
    outer loop
      vertex   -3.699222e+01 7.948596e+01 2.186891e+01
      vertex   -3.699222e+01 7.987670e+01 2.171892e+01
      vertex   -4.532555e+01 7.987670e+01 2.171892e+01
    endloop
  endfacet
  facet normal 0.000000e+00 2.249494e-01 9.743705e-01
    outer loop
      vertex   -4.532555e+01 7.948596e+01 2.186891e+01
      vertex   -4.532555e+01 7.907815e+01 2.196306e+01
      vertex   -3.699222e+01 7.907815e+01 2.196306e+01
    endloop
  endfacet
  facet normal 0.000000e+00 2.249494e-01 9.743705e-01
    outer loop
      vertex   -3.699222e+01 7.907815e+01 2.196306e+01
      vertex   -3.699222e+01 7.948596e+01 2.186891e+01
      vertex   -4.532555e+01 7.948596e+01 2.186891e+01
    endloop
  endfacet
  facet normal 0.000000e+00 8.715565e-02 9.961947e-01
    outer loop
      vertex   -3.699222e+01 7.907815e+01 2.196306e+01
      vertex   -4.532555e+01 7.907815e+01 2.196306e+01
      vertex   -3.699222e+01 7.866120e+01 2.199954e+01
    endloop
  endfacet
  facet normal 0.000000e+00 8.715565e-02 9.961947e-01
    outer loop
      vertex   -3.699222e+01 7.866120e+01 2.199954e+01
      vertex   -4.532555e+01 7.907815e+01 2.196306e+01
      vertex   -4.532555e+01 7.866120e+01 2.199954e+01
    endloop
  endfacet
  facet normal 0.000000e+00 9.335780e-01 3.583744e-01
    outer loop
      vertex   -2.032556e+01 8.132777e+01 2.026785e+01
      vertex   -2.032556e+01 8.147776e+01 1.987712e+01
      vertex   -2.865889e+01 8.147776e+01 1.987712e+01
    endloop
  endfacet
  facet normal -0.000000e+00 9.743722e-01 2.249417e-01
    outer loop
      vertex   -2.865889e+01 8.147776e+01 1.987712e+01
      vertex   -2.032556e+01 8.147776e+01 1.987712e+01
      vertex   -2.865889e+01 8.157191e+01 1.946930e+01
    endloop
  endfacet
  facet normal 0.000000e+00 8.746199e-01 4.848093e-01
    outer loop
      vertex   -2.032556e+01 8.112486e+01 2.063392e+01
      vertex   -2.032556e+01 8.132777e+01 2.026785e+01
      vertex   -2.865889e+01 8.132777e+01 2.026785e+01
    endloop
  endfacet
  facet normal -0.000000e+00 9.335780e-01 3.583744e-01
    outer loop
      vertex   -2.865889e+01 8.132777e+01 2.026785e+01
      vertex   -2.032556e+01 8.132777e+01 2.026785e+01
      vertex   -2.865889e+01 8.147776e+01 1.987712e+01
    endloop
  endfacet
  facet normal 0.000000e+00 7.986346e-01 6.018162e-01
    outer loop
      vertex   -2.032556e+01 8.087297e+01 2.096818e+01
      vertex   -2.032556e+01 8.112486e+01 2.063392e+01
      vertex   -2.865889e+01 8.112486e+01 2.063392e+01
    endloop
  endfacet
  facet normal -0.000000e+00 8.746199e-01 4.848093e-01
    outer loop
      vertex   -2.865889e+01 8.112486e+01 2.063392e+01
      vertex   -2.032556e+01 8.112486e+01 2.063392e+01
      vertex   -2.865889e+01 8.132777e+01 2.026785e+01
    endloop
  endfacet
  facet normal 0.000000e+00 7.071068e-01 7.071068e-01
    outer loop
      vertex   -2.032556e+01 8.057702e+01 2.126413e+01
      vertex   -2.032556e+01 8.087297e+01 2.096818e+01
      vertex   -2.865889e+01 8.087297e+01 2.096818e+01
    endloop
  endfacet
  facet normal -0.000000e+00 7.986346e-01 6.018162e-01
    outer loop
      vertex   -2.865889e+01 8.087297e+01 2.096818e+01
      vertex   -2.032556e+01 8.087297e+01 2.096818e+01
      vertex   -2.865889e+01 8.112486e+01 2.063392e+01
    endloop
  endfacet
  facet normal 3.473820e-18 6.018155e-01 7.986352e-01
    outer loop
      vertex   -2.032556e+01 8.024276e+01 2.151601e+01
      vertex   -2.032556e+01 8.057702e+01 2.126413e+01
      vertex   -2.865889e+01 8.057702e+01 2.126413e+01
    endloop
  endfacet
  facet normal -0.000000e+00 7.071068e-01 7.071068e-01
    outer loop
      vertex   -2.865889e+01 8.057702e+01 2.126413e+01
      vertex   -2.032556e+01 8.057702e+01 2.126413e+01
      vertex   -2.865889e+01 8.087297e+01 2.096818e+01
    endloop
  endfacet
  facet normal 0.000000e+00 4.848131e-01 8.746178e-01
    outer loop
      vertex   -2.032556e+01 7.987670e+01 2.171892e+01
      vertex   -2.032556e+01 8.024276e+01 2.151601e+01
      vertex   -2.865889e+01 8.024276e+01 2.151601e+01
    endloop
  endfacet
  facet normal -0.000000e+00 6.018155e-01 7.986352e-01
    outer loop
      vertex   -2.865889e+01 8.024276e+01 2.151601e+01
      vertex   -2.032556e+01 8.024276e+01 2.151601e+01
      vertex   -2.865889e+01 8.057702e+01 2.126413e+01
    endloop
  endfacet
  facet normal 3.473820e-18 3.583664e-01 9.335810e-01
    outer loop
      vertex   -2.032556e+01 7.948596e+01 2.186891e+01
      vertex   -2.032556e+01 7.987670e+01 2.171892e+01
      vertex   -2.865889e+01 7.987670e+01 2.171892e+01
    endloop
  endfacet
  facet normal -0.000000e+00 4.848131e-01 8.746178e-01
    outer loop
      vertex   -2.865889e+01 7.987670e+01 2.171892e+01
      vertex   -2.032556e+01 7.987670e+01 2.171892e+01
      vertex   -2.865889e+01 8.024276e+01 2.151601e+01
    endloop
  endfacet
  facet normal 0.000000e+00 2.249494e-01 9.743705e-01
    outer loop
      vertex   -2.032556e+01 7.907815e+01 2.196306e+01
      vertex   -2.032556e+01 7.948596e+01 2.186891e+01
      vertex   -2.865889e+01 7.948596e+01 2.186891e+01
    endloop
  endfacet
  facet normal -0.000000e+00 3.583664e-01 9.335810e-01
    outer loop
      vertex   -2.865889e+01 7.948596e+01 2.186891e+01
      vertex   -2.032556e+01 7.948596e+01 2.186891e+01
      vertex   -2.865889e+01 7.987670e+01 2.171892e+01
    endloop
  endfacet
  facet normal 0.000000e+00 8.715565e-02 9.961947e-01
    outer loop
      vertex   -2.032556e+01 7.866120e+01 2.199954e+01
      vertex   -2.032556e+01 7.907815e+01 2.196306e+01
      vertex   -2.865889e+01 7.907815e+01 2.196306e+01
    endloop
  endfacet
  facet normal -0.000000e+00 2.249494e-01 9.743705e-01
    outer loop
      vertex   -2.865889e+01 7.907815e+01 2.196306e+01
      vertex   -2.032556e+01 7.907815e+01 2.196306e+01
      vertex   -2.865889e+01 7.948596e+01 2.186891e+01
    endloop
  endfacet
  facet normal 0.000000e+00 8.715565e-02 9.961947e-01
    outer loop
      vertex   -2.032556e+01 7.866120e+01 2.199954e+01
      vertex   -2.865889e+01 7.907815e+01 2.196306e+01
      vertex   -2.865889e+01 7.866120e+01 2.199954e+01
    endloop
  endfacet
  facet normal 0.000000e+00 0.000000e+00 1.000000e+00
    outer loop
      vertex   -1.199222e+01 7.860884e+01 2.200000e+01
      vertex   -6.199222e+01 7.860884e+01 2.200000e+01
      vertex   -1.199222e+01 7.210884e+01 2.200000e+01
    endloop
  endfacet
  facet normal 0.000000e+00 0.000000e+00 1.000000e+00
    outer loop
      vertex   -1.199222e+01 7.210884e+01 2.200000e+01
      vertex   -6.199222e+01 7.860884e+01 2.200000e+01
      vertex   -6.199222e+01 7.210884e+01 2.200000e+01
    endloop
  endfacet
  facet normal -1.000000e+00 -0.000000e+00 -0.000000e+00
    outer loop
      vertex   -6.199222e+01 7.900042e+01 2.197433e+01
      vertex   -6.199222e+01 7.938530e+01 2.189778e+01
      vertex   -6.199222e+01 7.860884e+01 2.200000e+01
    endloop
  endfacet
  facet normal -1.000000e+00 0.000000e+00 0.000000e+00
    outer loop
      vertex   -6.199222e+01 7.860884e+01 2.200000e+01
      vertex   -6.199222e+01 7.938530e+01 2.189778e+01
      vertex   -6.199222e+01 7.975690e+01 2.177164e+01
    endloop
  endfacet
  facet normal -1.000000e+00 0.000000e+00 0.000000e+00
    outer loop
      vertex   -6.199222e+01 7.860884e+01 2.200000e+01
      vertex   -6.199222e+01 7.975690e+01 2.177164e+01
      vertex   -6.199222e+01 8.010884e+01 2.159808e+01
    endloop
  endfacet
  facet normal -1.000000e+00 -0.000000e+00 -0.000000e+00
    outer loop
      vertex   -6.199222e+01 8.010884e+01 2.159808e+01
      vertex   -6.199222e+01 8.043513e+01 2.138006e+01
      vertex   -6.199222e+01 7.860884e+01 2.200000e+01
    endloop
  endfacet
  facet normal -1.000000e+00 0.000000e+00 0.000000e+00
    outer loop
      vertex   -6.199222e+01 7.860884e+01 2.200000e+01
      vertex   -6.199222e+01 8.043513e+01 2.138006e+01
      vertex   -6.199222e+01 8.073016e+01 2.112132e+01
    endloop
  endfacet
  facet normal -1.000000e+00 0.000000e+00 0.000000e+00
    outer loop
      vertex   -6.199222e+01 7.860884e+01 2.200000e+01
      vertex   -6.199222e+01 8.073016e+01 2.112132e+01
      vertex   -6.199222e+01 8.098891e+01 2.082628e+01
    endloop
  endfacet
  facet normal -1.000000e+00 -0.000000e+00 -0.000000e+00
    outer loop
      vertex   -6.199222e+01 7.860884e+01 2.200000e+01
      vertex   -6.199222e+01 8.098891e+01 2.082628e+01
      vertex   -6.199222e+01 7.210884e+01 2.200000e+01
    endloop
  endfacet
  facet normal -1.000000e+00 0.000000e+00 0.000000e+00
    outer loop
      vertex   -6.199222e+01 7.210884e+01 2.200000e+01
      vertex   -6.199222e+01 8.098891e+01 2.082628e+01
      vertex   -6.199222e+01 8.120692e+01 2.050000e+01
    endloop
  endfacet
  facet normal -1.000000e+00 0.000000e+00 0.000000e+00
    outer loop
      vertex   -6.199222e+01 7.210884e+01 2.200000e+01
      vertex   -6.199222e+01 8.120692e+01 2.050000e+01
      vertex   -6.199222e+01 8.138049e+01 2.014805e+01
    endloop
  endfacet
  facet normal -1.000000e+00 -0.000000e+00 -0.000000e+00
    outer loop
      vertex   -6.199222e+01 8.138049e+01 2.014805e+01
      vertex   -6.199222e+01 8.150662e+01 1.977646e+01
      vertex   -6.199222e+01 7.210884e+01 2.200000e+01
    endloop
  endfacet
  facet normal -1.000000e+00 0.000000e+00 0.000000e+00
    outer loop
      vertex   -6.199222e+01 7.210884e+01 2.200000e+01
      vertex   -6.199222e+01 8.150662e+01 1.977646e+01
      vertex   -6.199222e+01 8.158318e+01 1.939158e+01
    endloop
  endfacet
  facet normal -1.000000e+00 0.000000e+00 0.000000e+00
    outer loop
      vertex   -6.199222e+01 7.210884e+01 2.200000e+01
      vertex   -6.199222e+01 8.158318e+01 1.939158e+01
      vertex   -6.199222e+01 8.160884e+01 1.900000e+01
    endloop
  endfacet
  facet normal -1.000000e+00 0.000000e+00 0.000000e+00
    outer loop
      vertex   -6.199222e+01 7.210884e+01 2.200000e+01
      vertex   -6.199222e+01 8.160884e+01 1.900000e+01
      vertex   -6.199222e+01 7.210884e+01 1.400000e+01
    endloop
  endfacet
  facet normal -1.000000e+00 0.000000e+00 0.000000e+00
    outer loop
      vertex   -6.199222e+01 7.210884e+01 1.400000e+01
      vertex   -6.199222e+01 8.160884e+01 1.900000e+01
      vertex   -6.199222e+01 8.160884e+01 3.000000e+00
    endloop
  endfacet
  facet normal -1.000000e+00 0.000000e+00 -0.000000e+00
    outer loop
      vertex   -6.199222e+01 7.210884e+01 1.400000e+01
      vertex   -6.199222e+01 8.160884e+01 3.000000e+00
      vertex   -6.199222e+01 2.960884e+01 3.000000e+00
    endloop
  endfacet
  facet normal -1.000000e+00 -0.000000e+00 0.000000e+00
    outer loop
      vertex   -6.199222e+01 7.210884e+01 1.400000e+01
      vertex   -6.199222e+01 2.960884e+01 3.000000e+00
      vertex   -6.199222e+01 3.910884e+01 1.400000e+01
    endloop
  endfacet
  facet normal -1.000000e+00 -0.000000e+00 0.000000e+00
    outer loop
      vertex   -6.199222e+01 3.910884e+01 1.400000e+01
      vertex   -6.199222e+01 2.960884e+01 3.000000e+00
      vertex   -6.199222e+01 2.960884e+01 1.900000e+01
    endloop
  endfacet
  facet normal -1.000000e+00 0.000000e+00 0.000000e+00
    outer loop
      vertex   -6.199222e+01 3.910884e+01 1.400000e+01
      vertex   -6.199222e+01 2.960884e+01 1.900000e+01
      vertex   -6.199222e+01 3.910884e+01 2.200000e+01
    endloop
  endfacet
  facet normal -1.000000e+00 0.000000e+00 0.000000e+00
    outer loop
      vertex   -6.199222e+01 3.910884e+01 2.200000e+01
      vertex   -6.199222e+01 2.960884e+01 1.900000e+01
      vertex   -6.199222e+01 2.963451e+01 1.939158e+01
    endloop
  endfacet
  facet normal -1.000000e+00 0.000000e+00 0.000000e+00
    outer loop
      vertex   -6.199222e+01 3.910884e+01 2.200000e+01
      vertex   -6.199222e+01 2.963451e+01 1.939158e+01
      vertex   -6.199222e+01 2.971107e+01 1.977646e+01
    endloop
  endfacet
  facet normal -1.000000e+00 0.000000e+00 0.000000e+00
    outer loop
      vertex   -6.199222e+01 2.971107e+01 1.977646e+01
      vertex   -6.199222e+01 2.983720e+01 2.014805e+01
      vertex   -6.199222e+01 3.910884e+01 2.200000e+01
    endloop
  endfacet
  facet normal -1.000000e+00 0.000000e+00 0.000000e+00
    outer loop
      vertex   -6.199222e+01 3.910884e+01 2.200000e+01
      vertex   -6.199222e+01 2.983720e+01 2.014805e+01
      vertex   -6.199222e+01 3.001077e+01 2.050000e+01
    endloop
  endfacet
  facet normal -1.000000e+00 0.000000e+00 0.000000e+00
    outer loop
      vertex   -6.199222e+01 3.910884e+01 2.200000e+01
      vertex   -6.199222e+01 3.001077e+01 2.050000e+01
      vertex   -6.199222e+01 3.022878e+01 2.082628e+01
    endloop
  endfacet
  facet normal -1.000000e+00 -0.000000e+00 0.000000e+00
    outer loop
      vertex   -6.199222e+01 3.910884e+01 2.200000e+01
      vertex   -6.199222e+01 3.022878e+01 2.082628e+01
      vertex   -6.199222e+01 3.260884e+01 2.200000e+01
    endloop
  endfacet
  facet normal -1.000000e+00 0.000000e+00 0.000000e+00
    outer loop
      vertex   -6.199222e+01 3.260884e+01 2.200000e+01
      vertex   -6.199222e+01 3.022878e+01 2.082628e+01
      vertex   -6.199222e+01 3.048752e+01 2.112132e+01
    endloop
  endfacet
  facet normal -1.000000e+00 0.000000e+00 0.000000e+00
    outer loop
      vertex   -6.199222e+01 3.260884e+01 2.200000e+01
      vertex   -6.199222e+01 3.048752e+01 2.112132e+01
      vertex   -6.199222e+01 3.078256e+01 2.138006e+01
    endloop
  endfacet
  facet normal -1.000000e+00 0.000000e+00 0.000000e+00
    outer loop
      vertex   -6.199222e+01 3.078256e+01 2.138006e+01
      vertex   -6.199222e+01 3.110884e+01 2.159808e+01
      vertex   -6.199222e+01 3.260884e+01 2.200000e+01
    endloop
  endfacet
  facet normal -1.000000e+00 0.000000e+00 0.000000e+00
    outer loop
      vertex   -6.199222e+01 3.260884e+01 2.200000e+01
      vertex   -6.199222e+01 3.110884e+01 2.159808e+01
      vertex   -6.199222e+01 3.146079e+01 2.177164e+01
    endloop
  endfacet
  facet normal -1.000000e+00 0.000000e+00 0.000000e+00
    outer loop
      vertex   -6.199222e+01 3.260884e+01 2.200000e+01
      vertex   -6.199222e+01 3.146079e+01 2.177164e+01
      vertex   -6.199222e+01 3.183239e+01 2.189778e+01
    endloop
  endfacet
  facet normal -1.000000e+00 0.000000e+00 0.000000e+00
    outer loop
      vertex   -6.199222e+01 3.183239e+01 2.189778e+01
      vertex   -6.199222e+01 3.221727e+01 2.197433e+01
      vertex   -6.199222e+01 3.260884e+01 2.200000e+01
    endloop
  endfacet
  facet normal 3.560989e-04 -9.978589e-01 6.540277e-02
    outer loop
      vertex   -1.199222e+01 2.963451e+01 1.939158e+01
      vertex   -2.032556e+01 2.960930e+01 1.905236e+01
      vertex   -1.199222e+01 2.960884e+01 1.900000e+01
    endloop
  endfacet
  facet normal -8.425988e-21 -9.999618e-01 8.742835e-03
    outer loop
      vertex   -1.199222e+01 2.960884e+01 1.900000e+01
      vertex   -2.032556e+01 2.960930e+01 1.905236e+01
      vertex   -2.865889e+01 2.960930e+01 1.905236e+01
    endloop
  endfacet
  facet normal -6.319378e-21 -9.999618e-01 8.742835e-03
    outer loop
      vertex   -1.199222e+01 2.960884e+01 1.900000e+01
      vertex   -2.865889e+01 2.960930e+01 1.905236e+01
      vertex   -3.699222e+01 2.960930e+01 1.905236e+01
    endloop
  endfacet
  facet normal 0.000000e+00 -9.961947e-01 8.715565e-02
    outer loop
      vertex   -3.699222e+01 2.960930e+01 1.905236e+01
      vertex   -2.865889e+01 2.960930e+01 1.905236e+01
      vertex   -3.699222e+01 2.964578e+01 1.946930e+01
    endloop
  endfacet
  facet normal 0.000000e+00 -9.961947e-01 8.715565e-02
    outer loop
      vertex   -3.699222e+01 2.960930e+01 1.905236e+01
      vertex   -3.699222e+01 2.964578e+01 1.946930e+01
      vertex   -4.532555e+01 2.964578e+01 1.946930e+01
    endloop
  endfacet
  facet normal 1.736910e-18 -9.743702e-01 2.249504e-01
    outer loop
      vertex   -3.699222e+01 2.964578e+01 1.946930e+01
      vertex   -3.699222e+01 2.973993e+01 1.987712e+01
      vertex   -4.532555e+01 2.973993e+01 1.987712e+01
    endloop
  endfacet
  facet normal 1.736910e-18 -9.743702e-01 2.249504e-01
    outer loop
      vertex   -4.532555e+01 2.973993e+01 1.987712e+01
      vertex   -4.532555e+01 2.964578e+01 1.946930e+01
      vertex   -3.699222e+01 2.964578e+01 1.946930e+01
    endloop
  endfacet
  facet normal 3.473820e-18 -9.335810e-01 3.583664e-01
    outer loop
      vertex   -3.699222e+01 2.973993e+01 1.987712e+01
      vertex   -3.699222e+01 2.988992e+01 2.026785e+01
      vertex   -4.532555e+01 2.988992e+01 2.026785e+01
    endloop
  endfacet
  facet normal 3.473820e-18 -9.335810e-01 3.583664e-01
    outer loop
      vertex   -4.532555e+01 2.988992e+01 2.026785e+01
      vertex   -4.532555e+01 2.973993e+01 1.987712e+01
      vertex   -3.699222e+01 2.973993e+01 1.987712e+01
    endloop
  endfacet
  facet normal 0.000000e+00 -8.746180e-01 4.848128e-01
    outer loop
      vertex   -3.699222e+01 2.988992e+01 2.026785e+01
      vertex   -3.699222e+01 3.009283e+01 2.063392e+01
      vertex   -4.532555e+01 3.009283e+01 2.063392e+01
    endloop
  endfacet
  facet normal 0.000000e+00 -8.746180e-01 4.848128e-01
    outer loop
      vertex   -4.532555e+01 3.009283e+01 2.063392e+01
      vertex   -4.532555e+01 2.988992e+01 2.026785e+01
      vertex   -3.699222e+01 2.988992e+01 2.026785e+01
    endloop
  endfacet
  facet normal 0.000000e+00 -7.986368e-01 6.018133e-01
    outer loop
      vertex   -3.699222e+01 3.009283e+01 2.063392e+01
      vertex   -3.699222e+01 3.034472e+01 2.096818e+01
      vertex   -4.532555e+01 3.034472e+01 2.096818e+01
    endloop
  endfacet
  facet normal 0.000000e+00 -7.986368e-01 6.018133e-01
    outer loop
      vertex   -4.532555e+01 3.034472e+01 2.096818e+01
      vertex   -4.532555e+01 3.009283e+01 2.063392e+01
      vertex   -3.699222e+01 3.009283e+01 2.063392e+01
    endloop
  endfacet
  facet normal 0.000000e+00 -7.071068e-01 7.071068e-01
    outer loop
      vertex   -3.699222e+01 3.034472e+01 2.096818e+01
      vertex   -3.699222e+01 3.064067e+01 2.126413e+01
      vertex   -4.532555e+01 3.064067e+01 2.126413e+01
    endloop
  endfacet
  facet normal 0.000000e+00 -7.071068e-01 7.071068e-01
    outer loop
      vertex   -4.532555e+01 3.064067e+01 2.126413e+01
      vertex   -4.532555e+01 3.034472e+01 2.096818e+01
      vertex   -3.699222e+01 3.034472e+01 2.096818e+01
    endloop
  endfacet
  facet normal -3.473820e-18 -6.018155e-01 7.986352e-01
    outer loop
      vertex   -3.699222e+01 3.064067e+01 2.126413e+01
      vertex   -3.699222e+01 3.097493e+01 2.151601e+01
      vertex   -4.532555e+01 3.097493e+01 2.151601e+01
    endloop
  endfacet
  facet normal -3.473820e-18 -6.018155e-01 7.986352e-01
    outer loop
      vertex   -4.532555e+01 3.097493e+01 2.151601e+01
      vertex   -4.532555e+01 3.064067e+01 2.126413e+01
      vertex   -3.699222e+01 3.064067e+01 2.126413e+01
    endloop
  endfacet
  facet normal 0.000000e+00 -4.848093e-01 8.746199e-01
    outer loop
      vertex   -3.699222e+01 3.097493e+01 2.151601e+01
      vertex   -3.699222e+01 3.134099e+01 2.171892e+01
      vertex   -4.532555e+01 3.134099e+01 2.171892e+01
    endloop
  endfacet
  facet normal 0.000000e+00 -4.848093e-01 8.746199e-01
    outer loop
      vertex   -4.532555e+01 3.134099e+01 2.171892e+01
      vertex   -4.532555e+01 3.097493e+01 2.151601e+01
      vertex   -3.699222e+01 3.097493e+01 2.151601e+01
    endloop
  endfacet
  facet normal -3.473820e-18 -3.583664e-01 9.335810e-01
    outer loop
      vertex   -3.699222e+01 3.134099e+01 2.171892e+01
      vertex   -3.699222e+01 3.173173e+01 2.186891e+01
      vertex   -4.532555e+01 3.173173e+01 2.186891e+01
    endloop
  endfacet
  facet normal -3.473820e-18 -3.583664e-01 9.335810e-01
    outer loop
      vertex   -4.532555e+01 3.173173e+01 2.186891e+01
      vertex   -4.532555e+01 3.134099e+01 2.171892e+01
      vertex   -3.699222e+01 3.134099e+01 2.171892e+01
    endloop
  endfacet
  facet normal 0.000000e+00 -2.249494e-01 9.743705e-01
    outer loop
      vertex   -3.699222e+01 3.173173e+01 2.186891e+01
      vertex   -3.699222e+01 3.213954e+01 2.196306e+01
      vertex   -4.532555e+01 3.213954e+01 2.196306e+01
    endloop
  endfacet
  facet normal 0.000000e+00 -2.249494e-01 9.743705e-01
    outer loop
      vertex   -4.532555e+01 3.213954e+01 2.196306e+01
      vertex   -4.532555e+01 3.173173e+01 2.186891e+01
      vertex   -3.699222e+01 3.173173e+01 2.186891e+01
    endloop
  endfacet
  facet normal 0.000000e+00 -8.715565e-02 9.961947e-01
    outer loop
      vertex   -4.532555e+01 3.213954e+01 2.196306e+01
      vertex   -3.699222e+01 3.213954e+01 2.196306e+01
      vertex   -4.532555e+01 3.255649e+01 2.199954e+01
    endloop
  endfacet
  facet normal 0.000000e+00 -8.715565e-02 9.961947e-01
    outer loop
      vertex   -4.532555e+01 3.255649e+01 2.199954e+01
      vertex   -3.699222e+01 3.213954e+01 2.196306e+01
      vertex   -3.699222e+01 3.255649e+01 2.199954e+01
    endloop
  endfacet
  facet normal 0.000000e+00 -8.742835e-03 9.999618e-01
    outer loop
      vertex   -4.532555e+01 3.255649e+01 2.199954e+01
      vertex   -3.699222e+01 3.255649e+01 2.199954e+01
      vertex   -6.199222e+01 3.260884e+01 2.200000e+01
    endloop
  endfacet
  facet normal 0.000000e+00 -8.742835e-03 9.999618e-01
    outer loop
      vertex   -6.199222e+01 3.260884e+01 2.200000e+01
      vertex   -3.699222e+01 3.255649e+01 2.199954e+01
      vertex   -1.199222e+01 3.260884e+01 2.200000e+01
    endloop
  endfacet
  facet normal -6.319378e-21 -8.742835e-03 9.999618e-01
    outer loop
      vertex   -1.199222e+01 3.260884e+01 2.200000e+01
      vertex   -3.699222e+01 3.255649e+01 2.199954e+01
      vertex   -2.865889e+01 3.255649e+01 2.199954e+01
    endloop
  endfacet
  facet normal -8.425988e-21 -8.742835e-03 9.999618e-01
    outer loop
      vertex   -1.199222e+01 3.260884e+01 2.200000e+01
      vertex   -2.865889e+01 3.255649e+01 2.199954e+01
      vertex   -2.032556e+01 3.255649e+01 2.199954e+01
    endloop
  endfacet
  facet normal 0.000000e+00 -8.715565e-02 9.961947e-01
    outer loop
      vertex   -2.032556e+01 3.255649e+01 2.199954e+01
      vertex   -2.865889e+01 3.255649e+01 2.199954e+01
      vertex   -2.032556e+01 3.213954e+01 2.196306e+01
    endloop
  endfacet
  facet normal -5.344211e-04 -8.715563e-02 9.961945e-01
    outer loop
      vertex   -2.032556e+01 3.255649e+01 2.199954e+01
      vertex   -2.032556e+01 3.213954e+01 2.196306e+01
      vertex   -1.199222e+01 3.221727e+01 2.197433e+01
    endloop
  endfacet
  facet normal 4.931132e-04 -1.950897e-01 9.807853e-01
    outer loop
      vertex   -1.199222e+01 3.221727e+01 2.197433e+01
      vertex   -2.032556e+01 3.213954e+01 2.196306e+01
      vertex   -1.199222e+01 3.183239e+01 2.189778e+01
    endloop
  endfacet
  facet normal -6.577307e-04 -2.249493e-01 9.743702e-01
    outer loop
      vertex   -1.199222e+01 3.183239e+01 2.189778e+01
      vertex   -2.032556e+01 3.213954e+01 2.196306e+01
      vertex   -2.032556e+01 3.173173e+01 2.186891e+01
    endloop
  endfacet
  facet normal 6.028089e-04 -3.214387e-01 9.469302e-01
    outer loop
      vertex   -1.199222e+01 3.183239e+01 2.189778e+01
      vertex   -2.032556e+01 3.173173e+01 2.186891e+01
      vertex   -1.199222e+01 3.146079e+01 2.177164e+01
    endloop
  endfacet
  facet normal -7.536163e-04 -3.583663e-01 9.335808e-01
    outer loop
      vertex   -1.199222e+01 3.146079e+01 2.177164e+01
      vertex   -2.032556e+01 3.173173e+01 2.186891e+01
      vertex   -2.032556e+01 3.134099e+01 2.171892e+01
    endloop
  endfacet
  facet normal 6.851269e-04 -4.422899e-01 8.968719e-01
    outer loop
      vertex   -1.199222e+01 3.146079e+01 2.177164e+01
      vertex   -2.032556e+01 3.134099e+01 2.171892e+01
      vertex   -1.199222e+01 3.110884e+01 2.159808e+01
    endloop
  endfacet
  facet normal -8.220467e-04 -4.848091e-01 8.746196e-01
    outer loop
      vertex   -1.199222e+01 3.110884e+01 2.159808e+01
      vertex   -2.032556e+01 3.134099e+01 2.171892e+01
      vertex   -2.032556e+01 3.097493e+01 2.151601e+01
    endloop
  endfacet
  facet normal 7.399877e-04 -5.555690e-01 8.314701e-01
    outer loop
      vertex   -1.199222e+01 3.110884e+01 2.159808e+01
      vertex   -2.032556e+01 3.097493e+01 2.151601e+01
      vertex   -1.199222e+01 3.078256e+01 2.138006e+01
    endloop
  endfacet
  facet normal -8.632471e-04 -6.018153e-01 7.986349e-01
    outer loop
      vertex   -1.199222e+01 3.078256e+01 2.138006e+01
      vertex   -2.032556e+01 3.097493e+01 2.151601e+01
      vertex   -2.032556e+01 3.064067e+01 2.126413e+01
    endloop
  endfacet
  facet normal 7.673734e-04 -6.593474e-01 7.518380e-01
    outer loop
      vertex   -1.199222e+01 3.078256e+01 2.138006e+01
      vertex   -2.032556e+01 3.064067e+01 2.126413e+01
      vertex   -1.199222e+01 3.048752e+01 2.112132e+01
    endloop
  endfacet
  facet normal -8.768698e-04 -7.071065e-01 7.071065e-01
    outer loop
      vertex   -1.199222e+01 3.048752e+01 2.112132e+01
      vertex   -2.032556e+01 3.064067e+01 2.126413e+01
      vertex   -2.032556e+01 3.034472e+01 2.096818e+01
    endloop
  endfacet
  facet normal 7.673621e-04 -7.518377e-01 6.593478e-01
    outer loop
      vertex   -1.199222e+01 3.048752e+01 2.112132e+01
      vertex   -2.032556e+01 3.034472e+01 2.096818e+01
      vertex   -1.199222e+01 3.022878e+01 2.082628e+01
    endloop
  endfacet
  facet normal -8.633524e-04 -7.986365e-01 6.018131e-01
    outer loop
      vertex   -1.199222e+01 3.022878e+01 2.082628e+01
      vertex   -2.032556e+01 3.034472e+01 2.096818e+01
      vertex   -2.032556e+01 3.009283e+01 2.063392e+01
    endloop
  endfacet
  facet normal 7.397974e-04 -8.314701e-01 5.555690e-01
    outer loop
      vertex   -1.199222e+01 3.022878e+01 2.082628e+01
      vertex   -2.032556e+01 3.009283e+01 2.063392e+01
      vertex   -1.199222e+01 3.001077e+01 2.050000e+01
    endloop
  endfacet
  facet normal -8.221717e-04 -8.746177e-01 4.848126e-01
    outer loop
      vertex   -1.199222e+01 3.001077e+01 2.050000e+01
      vertex   -2.032556e+01 3.009283e+01 2.063392e+01
      vertex   -2.032556e+01 2.988992e+01 2.026785e+01
    endloop
  endfacet
  facet normal 6.851269e-04 -8.968719e-01 4.422899e-01
    outer loop
      vertex   -1.199222e+01 3.001077e+01 2.050000e+01
      vertex   -2.032556e+01 2.988992e+01 2.026785e+01
      vertex   -1.199222e+01 2.983720e+01 2.014805e+01
    endloop
  endfacet
  facet normal -7.536163e-04 -9.335808e-01 3.583663e-01
    outer loop
      vertex   -1.199222e+01 2.983720e+01 2.014805e+01
      vertex   -2.032556e+01 2.988992e+01 2.026785e+01
      vertex   -2.032556e+01 2.973993e+01 1.987712e+01
    endloop
  endfacet
  facet normal 6.028089e-04 -9.469302e-01 3.214387e-01
    outer loop
      vertex   -1.199222e+01 2.983720e+01 2.014805e+01
      vertex   -2.032556e+01 2.973993e+01 1.987712e+01
      vertex   -1.199222e+01 2.971107e+01 1.977646e+01
    endloop
  endfacet
  facet normal -6.577178e-04 -9.743700e-01 2.249503e-01
    outer loop
      vertex   -1.199222e+01 2.971107e+01 1.977646e+01
      vertex   -2.032556e+01 2.973993e+01 1.987712e+01
      vertex   -2.032556e+01 2.964578e+01 1.946930e+01
    endloop
  endfacet
  facet normal 4.931222e-04 -9.807851e-01 1.950906e-01
    outer loop
      vertex   -1.199222e+01 2.971107e+01 1.977646e+01
      vertex   -2.032556e+01 2.964578e+01 1.946930e+01
      vertex   -1.199222e+01 2.963451e+01 1.939158e+01
    endloop
  endfacet
  facet normal -5.344211e-04 -9.961945e-01 8.715563e-02
    outer loop
      vertex   -1.199222e+01 2.963451e+01 1.939158e+01
      vertex   -2.032556e+01 2.964578e+01 1.946930e+01
      vertex   -2.032556e+01 2.960930e+01 1.905236e+01
    endloop
  endfacet
  facet normal 3.560989e-04 -6.540277e-02 9.978589e-01
    outer loop
      vertex   -1.199222e+01 3.221727e+01 2.197433e+01
      vertex   -1.199222e+01 3.260884e+01 2.200000e+01
      vertex   -2.032556e+01 3.255649e+01 2.199954e+01
    endloop
  endfacet
  facet normal 0.000000e+00 -8.742835e-03 9.999618e-01
    outer loop
      vertex   -4.532555e+01 3.255649e+01 2.199954e+01
      vertex   -6.199222e+01 3.260884e+01 2.200000e+01
      vertex   -5.365889e+01 3.255649e+01 2.199954e+01
    endloop
  endfacet
  facet normal -3.560990e-04 -6.540277e-02 9.978589e-01
    outer loop
      vertex   -5.365889e+01 3.255649e+01 2.199954e+01
      vertex   -6.199222e+01 3.260884e+01 2.200000e+01
      vertex   -6.199222e+01 3.221727e+01 2.197433e+01
    endloop
  endfacet
  facet normal 5.344212e-04 -8.715563e-02 9.961945e-01
    outer loop
      vertex   -5.365889e+01 3.255649e+01 2.199954e+01
      vertex   -6.199222e+01 3.221727e+01 2.197433e+01
      vertex   -5.365889e+01 3.213954e+01 2.196306e+01
    endloop
  endfacet
  facet normal -4.931134e-04 -1.950897e-01 9.807853e-01
    outer loop
      vertex   -5.365889e+01 3.213954e+01 2.196306e+01
      vertex   -6.199222e+01 3.221727e+01 2.197433e+01
      vertex   -6.199222e+01 3.183239e+01 2.189778e+01
    endloop
  endfacet
  facet normal 6.577309e-04 -2.249493e-01 9.743702e-01
    outer loop
      vertex   -5.365889e+01 3.213954e+01 2.196306e+01
      vertex   -6.199222e+01 3.183239e+01 2.189778e+01
      vertex   -5.365889e+01 3.173173e+01 2.186891e+01
    endloop
  endfacet
  facet normal -6.028090e-04 -3.214387e-01 9.469302e-01
    outer loop
      vertex   -5.365889e+01 3.173173e+01 2.186891e+01
      vertex   -6.199222e+01 3.183239e+01 2.189778e+01
      vertex   -6.199222e+01 3.146079e+01 2.177164e+01
    endloop
  endfacet
  facet normal 7.536164e-04 -3.583663e-01 9.335808e-01
    outer loop
      vertex   -5.365889e+01 3.173173e+01 2.186891e+01
      vertex   -6.199222e+01 3.146079e+01 2.177164e+01
      vertex   -5.365889e+01 3.134099e+01 2.171892e+01
    endloop
  endfacet
  facet normal -6.851270e-04 -4.422899e-01 8.968719e-01
    outer loop
      vertex   -5.365889e+01 3.134099e+01 2.171892e+01
      vertex   -6.199222e+01 3.146079e+01 2.177164e+01
      vertex   -6.199222e+01 3.110884e+01 2.159808e+01
    endloop
  endfacet
  facet normal 8.220468e-04 -4.848091e-01 8.746196e-01
    outer loop
      vertex   -5.365889e+01 3.134099e+01 2.171892e+01
      vertex   -6.199222e+01 3.110884e+01 2.159808e+01
      vertex   -5.365889e+01 3.097493e+01 2.151601e+01
    endloop
  endfacet
  facet normal -7.399879e-04 -5.555690e-01 8.314701e-01
    outer loop
      vertex   -5.365889e+01 3.097493e+01 2.151601e+01
      vertex   -6.199222e+01 3.110884e+01 2.159808e+01
      vertex   -6.199222e+01 3.078256e+01 2.138006e+01
    endloop
  endfacet
  facet normal 8.632473e-04 -6.018153e-01 7.986349e-01
    outer loop
      vertex   -5.365889e+01 3.097493e+01 2.151601e+01
      vertex   -6.199222e+01 3.078256e+01 2.138006e+01
      vertex   -5.365889e+01 3.064067e+01 2.126413e+01
    endloop
  endfacet
  facet normal -7.673735e-04 -6.593474e-01 7.518380e-01
    outer loop
      vertex   -5.365889e+01 3.064067e+01 2.126413e+01
      vertex   -6.199222e+01 3.078256e+01 2.138006e+01
      vertex   -6.199222e+01 3.048752e+01 2.112132e+01
    endloop
  endfacet
  facet normal 8.768701e-04 -7.071065e-01 7.071065e-01
    outer loop
      vertex   -5.365889e+01 3.064067e+01 2.126413e+01
      vertex   -6.199222e+01 3.048752e+01 2.112132e+01
      vertex   -5.365889e+01 3.034472e+01 2.096818e+01
    endloop
  endfacet
  facet normal -7.673622e-04 -7.518377e-01 6.593478e-01
    outer loop
      vertex   -5.365889e+01 3.034472e+01 2.096818e+01
      vertex   -6.199222e+01 3.048752e+01 2.112132e+01
      vertex   -6.199222e+01 3.022878e+01 2.082628e+01
    endloop
  endfacet
  facet normal 8.633526e-04 -7.986365e-01 6.018131e-01
    outer loop
      vertex   -5.365889e+01 3.034472e+01 2.096818e+01
      vertex   -6.199222e+01 3.022878e+01 2.082628e+01
      vertex   -5.365889e+01 3.009283e+01 2.063392e+01
    endloop
  endfacet
  facet normal -7.397976e-04 -8.314701e-01 5.555690e-01
    outer loop
      vertex   -5.365889e+01 3.009283e+01 2.063392e+01
      vertex   -6.199222e+01 3.022878e+01 2.082628e+01
      vertex   -6.199222e+01 3.001077e+01 2.050000e+01
    endloop
  endfacet
  facet normal 8.221720e-04 -8.746177e-01 4.848126e-01
    outer loop
      vertex   -5.365889e+01 3.009283e+01 2.063392e+01
      vertex   -6.199222e+01 3.001077e+01 2.050000e+01
      vertex   -5.365889e+01 2.988992e+01 2.026785e+01
    endloop
  endfacet
  facet normal -6.851270e-04 -8.968719e-01 4.422899e-01
    outer loop
      vertex   -5.365889e+01 2.988992e+01 2.026785e+01
      vertex   -6.199222e+01 3.001077e+01 2.050000e+01
      vertex   -6.199222e+01 2.983720e+01 2.014805e+01
    endloop
  endfacet
  facet normal 7.536164e-04 -9.335808e-01 3.583663e-01
    outer loop
      vertex   -5.365889e+01 2.988992e+01 2.026785e+01
      vertex   -6.199222e+01 2.983720e+01 2.014805e+01
      vertex   -5.365889e+01 2.973993e+01 1.987712e+01
    endloop
  endfacet
  facet normal -6.028090e-04 -9.469302e-01 3.214387e-01
    outer loop
      vertex   -5.365889e+01 2.973993e+01 1.987712e+01
      vertex   -6.199222e+01 2.983720e+01 2.014805e+01
      vertex   -6.199222e+01 2.971107e+01 1.977646e+01
    endloop
  endfacet
  facet normal 6.577180e-04 -9.743700e-01 2.249503e-01
    outer loop
      vertex   -5.365889e+01 2.973993e+01 1.987712e+01
      vertex   -6.199222e+01 2.971107e+01 1.977646e+01
      vertex   -5.365889e+01 2.964578e+01 1.946930e+01
    endloop
  endfacet
  facet normal -4.931223e-04 -9.807851e-01 1.950906e-01
    outer loop
      vertex   -5.365889e+01 2.964578e+01 1.946930e+01
      vertex   -6.199222e+01 2.971107e+01 1.977646e+01
      vertex   -6.199222e+01 2.963451e+01 1.939158e+01
    endloop
  endfacet
  facet normal 5.344212e-04 -9.961945e-01 8.715563e-02
    outer loop
      vertex   -5.365889e+01 2.964578e+01 1.946930e+01
      vertex   -6.199222e+01 2.963451e+01 1.939158e+01
      vertex   -5.365889e+01 2.960930e+01 1.905236e+01
    endloop
  endfacet
  facet normal -3.560990e-04 -9.978589e-01 6.540277e-02
    outer loop
      vertex   -5.365889e+01 2.960930e+01 1.905236e+01
      vertex   -6.199222e+01 2.963451e+01 1.939158e+01
      vertex   -6.199222e+01 2.960884e+01 1.900000e+01
    endloop
  endfacet
  facet normal 0.000000e+00 -9.999618e-01 8.742835e-03
    outer loop
      vertex   -5.365889e+01 2.960930e+01 1.905236e+01
      vertex   -6.199222e+01 2.960884e+01 1.900000e+01
      vertex   -4.532555e+01 2.960930e+01 1.905236e+01
    endloop
  endfacet
  facet normal 0.000000e+00 -9.999618e-01 8.742835e-03
    outer loop
      vertex   -4.532555e+01 2.960930e+01 1.905236e+01
      vertex   -6.199222e+01 2.960884e+01 1.900000e+01
      vertex   -3.699222e+01 2.960930e+01 1.905236e+01
    endloop
  endfacet
  facet normal 0.000000e+00 -9.961947e-01 8.715565e-02
    outer loop
      vertex   -4.532555e+01 2.960930e+01 1.905236e+01
      vertex   -3.699222e+01 2.960930e+01 1.905236e+01
      vertex   -4.532555e+01 2.964578e+01 1.946930e+01
    endloop
  endfacet
  facet normal 0.000000e+00 -9.999618e-01 8.742835e-03
    outer loop
      vertex   -6.199222e+01 2.960884e+01 1.900000e+01
      vertex   -1.199222e+01 2.960884e+01 1.900000e+01
      vertex   -3.699222e+01 2.960930e+01 1.905236e+01
    endloop
  endfacet
  facet normal 0.000000e+00 -9.961947e-01 8.715565e-02
    outer loop
      vertex   -2.865889e+01 2.960930e+01 1.905236e+01
      vertex   -2.032556e+01 2.960930e+01 1.905236e+01
      vertex   -2.865889e+01 2.964578e+01 1.946930e+01
    endloop
  endfacet
  facet normal 0.000000e+00 -9.961947e-01 8.715565e-02
    outer loop
      vertex   -2.865889e+01 2.964578e+01 1.946930e+01
      vertex   -2.032556e+01 2.960930e+01 1.905236e+01
      vertex   -2.032556e+01 2.964578e+01 1.946930e+01
    endloop
  endfacet
  facet normal 0.000000e+00 -9.743702e-01 2.249504e-01
    outer loop
      vertex   -2.865889e+01 2.964578e+01 1.946930e+01
      vertex   -2.032556e+01 2.964578e+01 1.946930e+01
      vertex   -2.865889e+01 2.973993e+01 1.987712e+01
    endloop
  endfacet
  facet normal 0.000000e+00 -9.743702e-01 2.249504e-01
    outer loop
      vertex   -2.865889e+01 2.973993e+01 1.987712e+01
      vertex   -2.032556e+01 2.964578e+01 1.946930e+01
      vertex   -2.032556e+01 2.973993e+01 1.987712e+01
    endloop
  endfacet
  facet normal 0.000000e+00 -9.335810e-01 3.583664e-01
    outer loop
      vertex   -2.865889e+01 2.973993e+01 1.987712e+01
      vertex   -2.032556e+01 2.973993e+01 1.987712e+01
      vertex   -2.865889e+01 2.988992e+01 2.026785e+01
    endloop
  endfacet
  facet normal 0.000000e+00 -9.335810e-01 3.583664e-01
    outer loop
      vertex   -2.865889e+01 2.988992e+01 2.026785e+01
      vertex   -2.032556e+01 2.973993e+01 1.987712e+01
      vertex   -2.032556e+01 2.988992e+01 2.026785e+01
    endloop
  endfacet
  facet normal 0.000000e+00 -8.746180e-01 4.848128e-01
    outer loop
      vertex   -2.865889e+01 2.988992e+01 2.026785e+01
      vertex   -2.032556e+01 2.988992e+01 2.026785e+01
      vertex   -2.865889e+01 3.009283e+01 2.063392e+01
    endloop
  endfacet
  facet normal 0.000000e+00 -8.746180e-01 4.848128e-01
    outer loop
      vertex   -2.865889e+01 3.009283e+01 2.063392e+01
      vertex   -2.032556e+01 2.988992e+01 2.026785e+01
      vertex   -2.032556e+01 3.009283e+01 2.063392e+01
    endloop
  endfacet
  facet normal 0.000000e+00 -7.986368e-01 6.018133e-01
    outer loop
      vertex   -2.865889e+01 3.009283e+01 2.063392e+01
      vertex   -2.032556e+01 3.009283e+01 2.063392e+01
      vertex   -2.865889e+01 3.034472e+01 2.096818e+01
    endloop
  endfacet
  facet normal 0.000000e+00 -7.986368e-01 6.018133e-01
    outer loop
      vertex   -2.865889e+01 3.034472e+01 2.096818e+01
      vertex   -2.032556e+01 3.009283e+01 2.063392e+01
      vertex   -2.032556e+01 3.034472e+01 2.096818e+01
    endloop
  endfacet
  facet normal 0.000000e+00 -7.071068e-01 7.071068e-01
    outer loop
      vertex   -2.865889e+01 3.034472e+01 2.096818e+01
      vertex   -2.032556e+01 3.034472e+01 2.096818e+01
      vertex   -2.865889e+01 3.064067e+01 2.126413e+01
    endloop
  endfacet
  facet normal 0.000000e+00 -7.071068e-01 7.071068e-01
    outer loop
      vertex   -2.865889e+01 3.064067e+01 2.126413e+01
      vertex   -2.032556e+01 3.034472e+01 2.096818e+01
      vertex   -2.032556e+01 3.064067e+01 2.126413e+01
    endloop
  endfacet
  facet normal 0.000000e+00 -6.018155e-01 7.986352e-01
    outer loop
      vertex   -2.865889e+01 3.064067e+01 2.126413e+01
      vertex   -2.032556e+01 3.064067e+01 2.126413e+01
      vertex   -2.865889e+01 3.097493e+01 2.151601e+01
    endloop
  endfacet
  facet normal 0.000000e+00 -6.018155e-01 7.986352e-01
    outer loop
      vertex   -2.865889e+01 3.097493e+01 2.151601e+01
      vertex   -2.032556e+01 3.064067e+01 2.126413e+01
      vertex   -2.032556e+01 3.097493e+01 2.151601e+01
    endloop
  endfacet
  facet normal 0.000000e+00 -4.848093e-01 8.746199e-01
    outer loop
      vertex   -2.865889e+01 3.097493e+01 2.151601e+01
      vertex   -2.032556e+01 3.097493e+01 2.151601e+01
      vertex   -2.865889e+01 3.134099e+01 2.171892e+01
    endloop
  endfacet
  facet normal 0.000000e+00 -4.848093e-01 8.746199e-01
    outer loop
      vertex   -2.865889e+01 3.134099e+01 2.171892e+01
      vertex   -2.032556e+01 3.097493e+01 2.151601e+01
      vertex   -2.032556e+01 3.134099e+01 2.171892e+01
    endloop
  endfacet
  facet normal 0.000000e+00 -3.583664e-01 9.335810e-01
    outer loop
      vertex   -2.865889e+01 3.134099e+01 2.171892e+01
      vertex   -2.032556e+01 3.134099e+01 2.171892e+01
      vertex   -2.865889e+01 3.173173e+01 2.186891e+01
    endloop
  endfacet
  facet normal 0.000000e+00 -3.583664e-01 9.335810e-01
    outer loop
      vertex   -2.865889e+01 3.173173e+01 2.186891e+01
      vertex   -2.032556e+01 3.134099e+01 2.171892e+01
      vertex   -2.032556e+01 3.173173e+01 2.186891e+01
    endloop
  endfacet
  facet normal 0.000000e+00 -2.249494e-01 9.743705e-01
    outer loop
      vertex   -2.865889e+01 3.173173e+01 2.186891e+01
      vertex   -2.032556e+01 3.173173e+01 2.186891e+01
      vertex   -2.865889e+01 3.213954e+01 2.196306e+01
    endloop
  endfacet
  facet normal 0.000000e+00 -2.249494e-01 9.743705e-01
    outer loop
      vertex   -2.865889e+01 3.213954e+01 2.196306e+01
      vertex   -2.032556e+01 3.173173e+01 2.186891e+01
      vertex   -2.032556e+01 3.213954e+01 2.196306e+01
    endloop
  endfacet
  facet normal 0.000000e+00 -8.715565e-02 9.961947e-01
    outer loop
      vertex   -2.865889e+01 3.213954e+01 2.196306e+01
      vertex   -2.032556e+01 3.213954e+01 2.196306e+01
      vertex   -2.865889e+01 3.255649e+01 2.199954e+01
    endloop
  endfacet
  facet normal 0.000000e+00 -9.961947e-01 8.715565e-02
    outer loop
      vertex   -5.365889e+01 2.964578e+01 1.946930e+01
      vertex   -5.365889e+01 2.960930e+01 1.905236e+01
      vertex   -4.532555e+01 2.960930e+01 1.905236e+01
    endloop
  endfacet
  facet normal 0.000000e+00 -9.961947e-01 8.715565e-02
    outer loop
      vertex   -5.365889e+01 2.964578e+01 1.946930e+01
      vertex   -4.532555e+01 2.960930e+01 1.905236e+01
      vertex   -4.532555e+01 2.964578e+01 1.946930e+01
    endloop
  endfacet
  facet normal 0.000000e+00 -9.743702e-01 2.249504e-01
    outer loop
      vertex   -3.699222e+01 2.964578e+01 1.946930e+01
      vertex   -2.865889e+01 2.964578e+01 1.946930e+01
      vertex   -2.865889e+01 2.973993e+01 1.987712e+01
    endloop
  endfacet
  facet normal 0.000000e+00 -9.743702e-01 2.249504e-01
    outer loop
      vertex   -2.865889e+01 2.973993e+01 1.987712e+01
      vertex   -3.699222e+01 2.973993e+01 1.987712e+01
      vertex   -3.699222e+01 2.964578e+01 1.946930e+01
    endloop
  endfacet
  facet normal 0.000000e+00 -9.743702e-01 2.249504e-01
    outer loop
      vertex   -5.365889e+01 2.973993e+01 1.987712e+01
      vertex   -5.365889e+01 2.964578e+01 1.946930e+01
      vertex   -4.532555e+01 2.964578e+01 1.946930e+01
    endloop
  endfacet
  facet normal 0.000000e+00 -9.961947e-01 8.715565e-02
    outer loop
      vertex   -2.865889e+01 2.960930e+01 1.905236e+01
      vertex   -2.865889e+01 2.964578e+01 1.946930e+01
      vertex   -3.699222e+01 2.964578e+01 1.946930e+01
    endloop
  endfacet
  facet normal 0.000000e+00 -9.335810e-01 3.583664e-01
    outer loop
      vertex   -2.865889e+01 2.973993e+01 1.987712e+01
      vertex   -2.865889e+01 2.988992e+01 2.026785e+01
      vertex   -3.699222e+01 2.988992e+01 2.026785e+01
    endloop
  endfacet
  facet normal 0.000000e+00 -9.335810e-01 3.583664e-01
    outer loop
      vertex   -3.699222e+01 2.988992e+01 2.026785e+01
      vertex   -3.699222e+01 2.973993e+01 1.987712e+01
      vertex   -2.865889e+01 2.973993e+01 1.987712e+01
    endloop
  endfacet
  facet normal 0.000000e+00 -8.746180e-01 4.848128e-01
    outer loop
      vertex   -2.865889e+01 2.988992e+01 2.026785e+01
      vertex   -2.865889e+01 3.009283e+01 2.063392e+01
      vertex   -3.699222e+01 3.009283e+01 2.063392e+01
    endloop
  endfacet
  facet normal 0.000000e+00 -8.746180e-01 4.848128e-01
    outer loop
      vertex   -3.699222e+01 3.009283e+01 2.063392e+01
      vertex   -3.699222e+01 2.988992e+01 2.026785e+01
      vertex   -2.865889e+01 2.988992e+01 2.026785e+01
    endloop
  endfacet
  facet normal 0.000000e+00 -7.986368e-01 6.018133e-01
    outer loop
      vertex   -2.865889e+01 3.009283e+01 2.063392e+01
      vertex   -2.865889e+01 3.034472e+01 2.096818e+01
      vertex   -3.699222e+01 3.034472e+01 2.096818e+01
    endloop
  endfacet
  facet normal 0.000000e+00 -7.986368e-01 6.018133e-01
    outer loop
      vertex   -3.699222e+01 3.034472e+01 2.096818e+01
      vertex   -3.699222e+01 3.009283e+01 2.063392e+01
      vertex   -2.865889e+01 3.009283e+01 2.063392e+01
    endloop
  endfacet
  facet normal 0.000000e+00 -7.071068e-01 7.071068e-01
    outer loop
      vertex   -2.865889e+01 3.034472e+01 2.096818e+01
      vertex   -2.865889e+01 3.064067e+01 2.126413e+01
      vertex   -3.699222e+01 3.064067e+01 2.126413e+01
    endloop
  endfacet
  facet normal 0.000000e+00 -7.071068e-01 7.071068e-01
    outer loop
      vertex   -3.699222e+01 3.064067e+01 2.126413e+01
      vertex   -3.699222e+01 3.034472e+01 2.096818e+01
      vertex   -2.865889e+01 3.034472e+01 2.096818e+01
    endloop
  endfacet
  facet normal 0.000000e+00 -6.018155e-01 7.986352e-01
    outer loop
      vertex   -2.865889e+01 3.064067e+01 2.126413e+01
      vertex   -2.865889e+01 3.097493e+01 2.151601e+01
      vertex   -3.699222e+01 3.097493e+01 2.151601e+01
    endloop
  endfacet
  facet normal 0.000000e+00 -6.018155e-01 7.986352e-01
    outer loop
      vertex   -3.699222e+01 3.097493e+01 2.151601e+01
      vertex   -3.699222e+01 3.064067e+01 2.126413e+01
      vertex   -2.865889e+01 3.064067e+01 2.126413e+01
    endloop
  endfacet
  facet normal 0.000000e+00 -4.848093e-01 8.746199e-01
    outer loop
      vertex   -2.865889e+01 3.097493e+01 2.151601e+01
      vertex   -2.865889e+01 3.134099e+01 2.171892e+01
      vertex   -3.699222e+01 3.134099e+01 2.171892e+01
    endloop
  endfacet
  facet normal 0.000000e+00 -4.848093e-01 8.746199e-01
    outer loop
      vertex   -3.699222e+01 3.134099e+01 2.171892e+01
      vertex   -3.699222e+01 3.097493e+01 2.151601e+01
      vertex   -2.865889e+01 3.097493e+01 2.151601e+01
    endloop
  endfacet
  facet normal 0.000000e+00 -3.583664e-01 9.335810e-01
    outer loop
      vertex   -2.865889e+01 3.134099e+01 2.171892e+01
      vertex   -2.865889e+01 3.173173e+01 2.186891e+01
      vertex   -3.699222e+01 3.173173e+01 2.186891e+01
    endloop
  endfacet
  facet normal 0.000000e+00 -3.583664e-01 9.335810e-01
    outer loop
      vertex   -3.699222e+01 3.173173e+01 2.186891e+01
      vertex   -3.699222e+01 3.134099e+01 2.171892e+01
      vertex   -2.865889e+01 3.134099e+01 2.171892e+01
    endloop
  endfacet
  facet normal 0.000000e+00 -2.249494e-01 9.743705e-01
    outer loop
      vertex   -2.865889e+01 3.173173e+01 2.186891e+01
      vertex   -2.865889e+01 3.213954e+01 2.196306e+01
      vertex   -3.699222e+01 3.213954e+01 2.196306e+01
    endloop
  endfacet
  facet normal 0.000000e+00 -2.249494e-01 9.743705e-01
    outer loop
      vertex   -3.699222e+01 3.213954e+01 2.196306e+01
      vertex   -3.699222e+01 3.173173e+01 2.186891e+01
      vertex   -2.865889e+01 3.173173e+01 2.186891e+01
    endloop
  endfacet
  facet normal 0.000000e+00 -8.715565e-02 9.961947e-01
    outer loop
      vertex   -3.699222e+01 3.213954e+01 2.196306e+01
      vertex   -2.865889e+01 3.213954e+01 2.196306e+01
      vertex   -3.699222e+01 3.255649e+01 2.199954e+01
    endloop
  endfacet
  facet normal 0.000000e+00 -8.715565e-02 9.961947e-01
    outer loop
      vertex   -3.699222e+01 3.255649e+01 2.199954e+01
      vertex   -2.865889e+01 3.213954e+01 2.196306e+01
      vertex   -2.865889e+01 3.255649e+01 2.199954e+01
    endloop
  endfacet
  facet normal -3.473820e-18 -9.335810e-01 3.583664e-01
    outer loop
      vertex   -5.365889e+01 2.988992e+01 2.026785e+01
      vertex   -5.365889e+01 2.973993e+01 1.987712e+01
      vertex   -4.532555e+01 2.973993e+01 1.987712e+01
    endloop
  endfacet
  facet normal 0.000000e+00 -9.743702e-01 2.249504e-01
    outer loop
      vertex   -4.532555e+01 2.973993e+01 1.987712e+01
      vertex   -5.365889e+01 2.973993e+01 1.987712e+01
      vertex   -4.532555e+01 2.964578e+01 1.946930e+01
    endloop
  endfacet
  facet normal 6.947641e-18 -8.746180e-01 4.848128e-01
    outer loop
      vertex   -5.365889e+01 3.009283e+01 2.063392e+01
      vertex   -5.365889e+01 2.988992e+01 2.026785e+01
      vertex   -4.532555e+01 2.988992e+01 2.026785e+01
    endloop
  endfacet
  facet normal 0.000000e+00 -9.335810e-01 3.583664e-01
    outer loop
      vertex   -4.532555e+01 2.988992e+01 2.026785e+01
      vertex   -5.365889e+01 2.988992e+01 2.026785e+01
      vertex   -4.532555e+01 2.973993e+01 1.987712e+01
    endloop
  endfacet
  facet normal 0.000000e+00 -7.986368e-01 6.018133e-01
    outer loop
      vertex   -5.365889e+01 3.034472e+01 2.096818e+01
      vertex   -5.365889e+01 3.009283e+01 2.063392e+01
      vertex   -4.532555e+01 3.009283e+01 2.063392e+01
    endloop
  endfacet
  facet normal 0.000000e+00 -8.746180e-01 4.848128e-01
    outer loop
      vertex   -4.532555e+01 3.009283e+01 2.063392e+01
      vertex   -5.365889e+01 3.009283e+01 2.063392e+01
      vertex   -4.532555e+01 2.988992e+01 2.026785e+01
    endloop
  endfacet
  facet normal 0.000000e+00 -7.071068e-01 7.071068e-01
    outer loop
      vertex   -5.365889e+01 3.064067e+01 2.126413e+01
      vertex   -5.365889e+01 3.034472e+01 2.096818e+01
      vertex   -4.532555e+01 3.034472e+01 2.096818e+01
    endloop
  endfacet
  facet normal 0.000000e+00 -7.986368e-01 6.018133e-01
    outer loop
      vertex   -4.532555e+01 3.034472e+01 2.096818e+01
      vertex   -5.365889e+01 3.034472e+01 2.096818e+01
      vertex   -4.532555e+01 3.009283e+01 2.063392e+01
    endloop
  endfacet
  facet normal -3.473820e-18 -6.018155e-01 7.986352e-01
    outer loop
      vertex   -5.365889e+01 3.097493e+01 2.151601e+01
      vertex   -5.365889e+01 3.064067e+01 2.126413e+01
      vertex   -4.532555e+01 3.064067e+01 2.126413e+01
    endloop
  endfacet
  facet normal 0.000000e+00 -7.071068e-01 7.071068e-01
    outer loop
      vertex   -4.532555e+01 3.064067e+01 2.126413e+01
      vertex   -5.365889e+01 3.064067e+01 2.126413e+01
      vertex   -4.532555e+01 3.034472e+01 2.096818e+01
    endloop
  endfacet
  facet normal 0.000000e+00 -4.848093e-01 8.746199e-01
    outer loop
      vertex   -5.365889e+01 3.134099e+01 2.171892e+01
      vertex   -5.365889e+01 3.097493e+01 2.151601e+01
      vertex   -4.532555e+01 3.097493e+01 2.151601e+01
    endloop
  endfacet
  facet normal 0.000000e+00 -6.018155e-01 7.986352e-01
    outer loop
      vertex   -4.532555e+01 3.097493e+01 2.151601e+01
      vertex   -5.365889e+01 3.097493e+01 2.151601e+01
      vertex   -4.532555e+01 3.064067e+01 2.126413e+01
    endloop
  endfacet
  facet normal 3.473820e-18 -3.583664e-01 9.335810e-01
    outer loop
      vertex   -5.365889e+01 3.173173e+01 2.186891e+01
      vertex   -5.365889e+01 3.134099e+01 2.171892e+01
      vertex   -4.532555e+01 3.134099e+01 2.171892e+01
    endloop
  endfacet
  facet normal 0.000000e+00 -4.848093e-01 8.746199e-01
    outer loop
      vertex   -4.532555e+01 3.134099e+01 2.171892e+01
      vertex   -5.365889e+01 3.134099e+01 2.171892e+01
      vertex   -4.532555e+01 3.097493e+01 2.151601e+01
    endloop
  endfacet
  facet normal -1.736910e-18 -2.249494e-01 9.743705e-01
    outer loop
      vertex   -5.365889e+01 3.213954e+01 2.196306e+01
      vertex   -5.365889e+01 3.173173e+01 2.186891e+01
      vertex   -4.532555e+01 3.173173e+01 2.186891e+01
    endloop
  endfacet
  facet normal 0.000000e+00 -3.583664e-01 9.335810e-01
    outer loop
      vertex   -4.532555e+01 3.173173e+01 2.186891e+01
      vertex   -5.365889e+01 3.173173e+01 2.186891e+01
      vertex   -4.532555e+01 3.134099e+01 2.171892e+01
    endloop
  endfacet
  facet normal 0.000000e+00 -8.715565e-02 9.961947e-01
    outer loop
      vertex   -5.365889e+01 3.255649e+01 2.199954e+01
      vertex   -5.365889e+01 3.213954e+01 2.196306e+01
      vertex   -4.532555e+01 3.213954e+01 2.196306e+01
    endloop
  endfacet
  facet normal 0.000000e+00 -2.249494e-01 9.743705e-01
    outer loop
      vertex   -4.532555e+01 3.213954e+01 2.196306e+01
      vertex   -5.365889e+01 3.213954e+01 2.196306e+01
      vertex   -4.532555e+01 3.173173e+01 2.186891e+01
    endloop
  endfacet
  facet normal 0.000000e+00 -8.715565e-02 9.961947e-01
    outer loop
      vertex   -5.365889e+01 3.255649e+01 2.199954e+01
      vertex   -4.532555e+01 3.213954e+01 2.196306e+01
      vertex   -4.532555e+01 3.255649e+01 2.199954e+01
    endloop
  endfacet
  facet normal 0.000000e+00 0.000000e+00 1.000000e+00
    outer loop
      vertex   -6.199222e+01 3.260884e+01 2.200000e+01
      vertex   -1.199222e+01 3.260884e+01 2.200000e+01
      vertex   -6.199222e+01 3.910884e+01 2.200000e+01
    endloop
  endfacet
  facet normal -0.000000e+00 0.000000e+00 1.000000e+00
    outer loop
      vertex   -6.199222e+01 3.910884e+01 2.200000e+01
      vertex   -1.199222e+01 3.260884e+01 2.200000e+01
      vertex   -1.199222e+01 3.910884e+01 2.200000e+01
    endloop
  endfacet
  facet normal 1.000000e+00 0.000000e+00 0.000000e+00
    outer loop
      vertex   -1.199222e+01 8.158318e+01 1.939158e+01
      vertex   -1.199222e+01 7.210884e+01 2.200000e+01
      vertex   -1.199222e+01 8.160884e+01 1.900000e+01
    endloop
  endfacet
  facet normal 1.000000e+00 0.000000e+00 0.000000e+00
    outer loop
      vertex   -1.199222e+01 8.160884e+01 1.900000e+01
      vertex   -1.199222e+01 7.210884e+01 2.200000e+01
      vertex   -1.199222e+01 7.210884e+01 1.400000e+01
    endloop
  endfacet
  facet normal 1.000000e+00 0.000000e+00 0.000000e+00
    outer loop
      vertex   -1.199222e+01 8.160884e+01 1.900000e+01
      vertex   -1.199222e+01 7.210884e+01 1.400000e+01
      vertex   -1.199222e+01 8.160884e+01 3.000000e+00
    endloop
  endfacet
  facet normal 1.000000e+00 0.000000e+00 0.000000e+00
    outer loop
      vertex   -1.199222e+01 8.160884e+01 3.000000e+00
      vertex   -1.199222e+01 7.210884e+01 1.400000e+01
      vertex   -1.199222e+01 3.910884e+01 1.400000e+01
    endloop
  endfacet
  facet normal 1.000000e+00 0.000000e+00 0.000000e+00
    outer loop
      vertex   -1.199222e+01 8.160884e+01 3.000000e+00
      vertex   -1.199222e+01 3.910884e+01 1.400000e+01
      vertex   -1.199222e+01 2.960884e+01 3.000000e+00
    endloop
  endfacet
  facet normal 1.000000e+00 0.000000e+00 0.000000e+00
    outer loop
      vertex   -1.199222e+01 2.960884e+01 3.000000e+00
      vertex   -1.199222e+01 3.910884e+01 1.400000e+01
      vertex   -1.199222e+01 2.960884e+01 1.900000e+01
    endloop
  endfacet
  facet normal 1.000000e+00 -0.000000e+00 0.000000e+00
    outer loop
      vertex   -1.199222e+01 2.960884e+01 1.900000e+01
      vertex   -1.199222e+01 3.910884e+01 1.400000e+01
      vertex   -1.199222e+01 3.910884e+01 2.200000e+01
    endloop
  endfacet
  facet normal 1.000000e+00 0.000000e+00 0.000000e+00
    outer loop
      vertex   -1.199222e+01 2.960884e+01 1.900000e+01
      vertex   -1.199222e+01 3.910884e+01 2.200000e+01
      vertex   -1.199222e+01 2.963451e+01 1.939158e+01
    endloop
  endfacet
  facet normal 1.000000e+00 0.000000e+00 0.000000e+00
    outer loop
      vertex   -1.199222e+01 2.963451e+01 1.939158e+01
      vertex   -1.199222e+01 3.910884e+01 2.200000e+01
      vertex   -1.199222e+01 2.971107e+01 1.977646e+01
    endloop
  endfacet
  facet normal 1.000000e+00 0.000000e+00 0.000000e+00
    outer loop
      vertex   -1.199222e+01 2.971107e+01 1.977646e+01
      vertex   -1.199222e+01 3.910884e+01 2.200000e+01
      vertex   -1.199222e+01 2.983720e+01 2.014805e+01
    endloop
  endfacet
  facet normal 1.000000e+00 0.000000e+00 0.000000e+00
    outer loop
      vertex   -1.199222e+01 2.983720e+01 2.014805e+01
      vertex   -1.199222e+01 3.910884e+01 2.200000e+01
      vertex   -1.199222e+01 3.001077e+01 2.050000e+01
    endloop
  endfacet
  facet normal 1.000000e+00 0.000000e+00 0.000000e+00
    outer loop
      vertex   -1.199222e+01 3.001077e+01 2.050000e+01
      vertex   -1.199222e+01 3.910884e+01 2.200000e+01
      vertex   -1.199222e+01 3.022878e+01 2.082628e+01
    endloop
  endfacet
  facet normal 1.000000e+00 0.000000e+00 0.000000e+00
    outer loop
      vertex   -1.199222e+01 3.022878e+01 2.082628e+01
      vertex   -1.199222e+01 3.910884e+01 2.200000e+01
      vertex   -1.199222e+01 3.260884e+01 2.200000e+01
    endloop
  endfacet
  facet normal 1.000000e+00 0.000000e+00 0.000000e+00
    outer loop
      vertex   -1.199222e+01 3.022878e+01 2.082628e+01
      vertex   -1.199222e+01 3.260884e+01 2.200000e+01
      vertex   -1.199222e+01 3.048752e+01 2.112132e+01
    endloop
  endfacet
  facet normal 1.000000e+00 0.000000e+00 0.000000e+00
    outer loop
      vertex   -1.199222e+01 3.048752e+01 2.112132e+01
      vertex   -1.199222e+01 3.260884e+01 2.200000e+01
      vertex   -1.199222e+01 3.078256e+01 2.138006e+01
    endloop
  endfacet
  facet normal 1.000000e+00 0.000000e+00 0.000000e+00
    outer loop
      vertex   -1.199222e+01 3.078256e+01 2.138006e+01
      vertex   -1.199222e+01 3.260884e+01 2.200000e+01
      vertex   -1.199222e+01 3.110884e+01 2.159808e+01
    endloop
  endfacet
  facet normal 1.000000e+00 0.000000e+00 0.000000e+00
    outer loop
      vertex   -1.199222e+01 3.110884e+01 2.159808e+01
      vertex   -1.199222e+01 3.260884e+01 2.200000e+01
      vertex   -1.199222e+01 3.146079e+01 2.177164e+01
    endloop
  endfacet
  facet normal 1.000000e+00 0.000000e+00 0.000000e+00
    outer loop
      vertex   -1.199222e+01 3.146079e+01 2.177164e+01
      vertex   -1.199222e+01 3.260884e+01 2.200000e+01
      vertex   -1.199222e+01 3.183239e+01 2.189778e+01
    endloop
  endfacet
  facet normal 1.000000e+00 0.000000e+00 0.000000e+00
    outer loop
      vertex   -1.199222e+01 3.183239e+01 2.189778e+01
      vertex   -1.199222e+01 3.260884e+01 2.200000e+01
      vertex   -1.199222e+01 3.221727e+01 2.197433e+01
    endloop
  endfacet
  facet normal 1.000000e+00 0.000000e+00 0.000000e+00
    outer loop
      vertex   -1.199222e+01 8.158318e+01 1.939158e+01
      vertex   -1.199222e+01 8.150662e+01 1.977646e+01
      vertex   -1.199222e+01 7.210884e+01 2.200000e+01
    endloop
  endfacet
  facet normal 1.000000e+00 0.000000e+00 0.000000e+00
    outer loop
      vertex   -1.199222e+01 7.210884e+01 2.200000e+01
      vertex   -1.199222e+01 8.150662e+01 1.977646e+01
      vertex   -1.199222e+01 8.138049e+01 2.014805e+01
    endloop
  endfacet
  facet normal 1.000000e+00 0.000000e+00 0.000000e+00
    outer loop
      vertex   -1.199222e+01 7.210884e+01 2.200000e+01
      vertex   -1.199222e+01 8.138049e+01 2.014805e+01
      vertex   -1.199222e+01 8.120692e+01 2.050000e+01
    endloop
  endfacet
  facet normal 1.000000e+00 0.000000e+00 0.000000e+00
    outer loop
      vertex   -1.199222e+01 8.120692e+01 2.050000e+01
      vertex   -1.199222e+01 8.098891e+01 2.082628e+01
      vertex   -1.199222e+01 7.210884e+01 2.200000e+01
    endloop
  endfacet
  facet normal 1.000000e+00 -0.000000e+00 0.000000e+00
    outer loop
      vertex   -1.199222e+01 7.210884e+01 2.200000e+01
      vertex   -1.199222e+01 8.098891e+01 2.082628e+01
      vertex   -1.199222e+01 7.860884e+01 2.200000e+01
    endloop
  endfacet
  facet normal 1.000000e+00 0.000000e+00 0.000000e+00
    outer loop
      vertex   -1.199222e+01 7.860884e+01 2.200000e+01
      vertex   -1.199222e+01 8.098891e+01 2.082628e+01
      vertex   -1.199222e+01 8.073016e+01 2.112132e+01
    endloop
  endfacet
  facet normal 1.000000e+00 0.000000e+00 0.000000e+00
    outer loop
      vertex   -1.199222e+01 7.860884e+01 2.200000e+01
      vertex   -1.199222e+01 8.073016e+01 2.112132e+01
      vertex   -1.199222e+01 8.043513e+01 2.138006e+01
    endloop
  endfacet
  facet normal 1.000000e+00 0.000000e+00 0.000000e+00
    outer loop
      vertex   -1.199222e+01 8.043513e+01 2.138006e+01
      vertex   -1.199222e+01 8.010884e+01 2.159808e+01
      vertex   -1.199222e+01 7.860884e+01 2.200000e+01
    endloop
  endfacet
  facet normal 1.000000e+00 0.000000e+00 0.000000e+00
    outer loop
      vertex   -1.199222e+01 7.860884e+01 2.200000e+01
      vertex   -1.199222e+01 8.010884e+01 2.159808e+01
      vertex   -1.199222e+01 7.975690e+01 2.177164e+01
    endloop
  endfacet
  facet normal 1.000000e+00 0.000000e+00 0.000000e+00
    outer loop
      vertex   -1.199222e+01 7.860884e+01 2.200000e+01
      vertex   -1.199222e+01 7.975690e+01 2.177164e+01
      vertex   -1.199222e+01 7.938530e+01 2.189778e+01
    endloop
  endfacet
  facet normal 1.000000e+00 0.000000e+00 0.000000e+00
    outer loop
      vertex   -1.199222e+01 7.938530e+01 2.189778e+01
      vertex   -1.199222e+01 7.900042e+01 2.197433e+01
      vertex   -1.199222e+01 7.860884e+01 2.200000e+01
    endloop
  endfacet
  facet normal 0.000000e+00 1.000000e+00 -0.000000e+00
    outer loop
      vertex   -1.199222e+01 3.910884e+01 1.400000e+01
      vertex   -6.199222e+01 3.910884e+01 1.400000e+01
      vertex   -1.199222e+01 3.910884e+01 2.200000e+01
    endloop
  endfacet
  facet normal 0.000000e+00 1.000000e+00 0.000000e+00
    outer loop
      vertex   -1.199222e+01 3.910884e+01 2.200000e+01
      vertex   -6.199222e+01 3.910884e+01 1.400000e+01
      vertex   -6.199222e+01 3.910884e+01 2.200000e+01
    endloop
  endfacet
  facet normal 0.000000e+00 0.000000e+00 1.000000e+00
    outer loop
      vertex   -1.199222e+01 7.210884e+01 1.400000e+01
      vertex   -6.199222e+01 7.210884e+01 1.400000e+01
      vertex   -1.199222e+01 3.910884e+01 1.400000e+01
    endloop
  endfacet
  facet normal 0.000000e+00 0.000000e+00 1.000000e+00
    outer loop
      vertex   -1.199222e+01 3.910884e+01 1.400000e+01
      vertex   -6.199222e+01 7.210884e+01 1.400000e+01
      vertex   -6.199222e+01 3.910884e+01 1.400000e+01
    endloop
  endfacet
  facet normal -0.000000e+00 -1.000000e+00 -0.000000e+00
    outer loop
      vertex   -1.199222e+01 7.210884e+01 2.200000e+01
      vertex   -6.199222e+01 7.210884e+01 2.200000e+01
      vertex   -1.199222e+01 7.210884e+01 1.400000e+01
    endloop
  endfacet
  facet normal 0.000000e+00 -1.000000e+00 0.000000e+00
    outer loop
      vertex   -1.199222e+01 7.210884e+01 1.400000e+01
      vertex   -6.199222e+01 7.210884e+01 2.200000e+01
      vertex   -6.199222e+01 7.210884e+01 1.400000e+01
    endloop
  endfacet
  facet normal -0.000000e+00 -1.000000e+00 -0.000000e+00
    outer loop
      vertex   -1.199222e+01 2.960884e+01 1.900000e+01
      vertex   -6.199222e+01 2.960884e+01 1.900000e+01
      vertex   -1.199222e+01 2.960884e+01 3.000000e+00
    endloop
  endfacet
  facet normal 0.000000e+00 -1.000000e+00 0.000000e+00
    outer loop
      vertex   -1.199222e+01 2.960884e+01 3.000000e+00
      vertex   -6.199222e+01 2.960884e+01 1.900000e+01
      vertex   -6.199222e+01 2.960884e+01 3.000000e+00
    endloop
  endfacet
  facet normal -0.000000e+00 1.000000e+00 0.000000e+00
    outer loop
      vertex   -6.199222e+01 8.160884e+01 1.900000e+01
      vertex   -1.199222e+01 8.160884e+01 1.900000e+01
      vertex   -6.199222e+01 8.160884e+01 3.000000e+00
    endloop
  endfacet
  facet normal 0.000000e+00 1.000000e+00 0.000000e+00
    outer loop
      vertex   -6.199222e+01 8.160884e+01 3.000000e+00
      vertex   -1.199222e+01 8.160884e+01 1.900000e+01
      vertex   -1.199222e+01 8.160884e+01 3.000000e+00
    endloop
  endfacet
  facet normal 0.000000e+00 0.000000e+00 -1.000000e+00
    outer loop
      vertex   -6.199222e+01 8.160884e+01 3.000000e+00
      vertex   -1.199222e+01 8.160884e+01 3.000000e+00
      vertex   -6.199222e+01 2.960884e+01 3.000000e+00
    endloop
  endfacet
  facet normal 0.000000e+00 0.000000e+00 -1.000000e+00
    outer loop
      vertex   -6.199222e+01 2.960884e+01 3.000000e+00
      vertex   -1.199222e+01 8.160884e+01 3.000000e+00
      vertex   -1.199222e+01 2.960884e+01 3.000000e+00
    endloop
  endfacet
endsolid
